# MagicaVoxel @ Ephtracy

# group
o 

# material
mtllib road_part1.mtl
usemtl palette

# normals
vn -1 0 0
vn 1 0 0
vn 0 0 1
vn 0 0 -1
vn 0 -1 0
vn 0 1 0

# texcoords
vt 0.306641 0.5
vt 0.986328 0.5
vt 0.990234 0.5
vt 0.994141 0.5

# verts
v -4 0 2
v -4 0 -1
v -4 0.1 2
v -4 0.1 -1
v -3.9 0 -1
v -3.9 0 -1.1
v -3.9 0.1 -1
v -3.9 0.1 -1.1
v -3.8 0 -0.8
v -3.8 0 -0.9
v -3.8 0 -1.2
v -3.8 0 -1.3
v -3.8 0.1 -0.8
v -3.8 0.1 -0.9
v -3.8 0.1 -1.2
v -3.8 0.1 -1.3
v -3.6 0 -0.9
v -3.6 0 -1.2
v -3.6 0.1 -0.9
v -3.6 0.1 -1.2
v -3.4 0 -1.2
v -3.4 0 -1.3
v -3.4 0.1 -1.2
v -3.4 0.1 -1.3
v -3.2 0 -1.3
v -3.2 0 -1.7
v -3.2 0.1 -1.3
v -3.2 0.1 -1.7
v -3.1 0 -1.7
v -3.1 0 -1.9
v -3.1 0.1 -1.7
v -3.1 0.1 -1.9
v -2.3 0 -1.9
v -2.3 0 -2
v -2.3 0.1 -1.9
v -2.3 0.1 -2
v -1.5 0 -0.8
v -1.5 0 -0.9
v -1.5 0.1 -0.8
v -1.5 0.1 -0.9
v -1.4 0 -0.9
v -1.4 0 -1
v -1.4 0 -1.2
v -1.4 0 -1.4
v -1.4 0 -1.5
v -1.4 0 -1.6
v -1.4 0.1 -0.9
v -1.4 0.1 -1
v -1.4 0.1 -1.2
v -1.4 0.1 -1.4
v -1.4 0.1 -1.5
v -1.4 0.1 -1.6
v -1.3 0 -1
v -1.3 0 -1.2
v -1.3 0 -1.4
v -1.3 0 -1.5
v -1.3 0 -1.6
v -1.3 0 -1.8
v -1.3 0.1 -1
v -1.3 0.1 -1.2
v -1.3 0.1 -1.4
v -1.3 0.1 -1.5
v -1.3 0.1 -1.6
v -1.3 0.1 -1.8
v -1.2 0 -1.8
v -1.2 0 -1.9
v -1.2 0.1 -1.8
v -1.2 0.1 -1.9
v -1.1 0 -1.9
v -1.1 0 -2
v -1.1 0.1 -1.9
v -1.1 0.1 -2
v 1.56462e-007 0 -1.4
v 1.56462e-007 0 -1.5
v 1.56462e-007 0.1 -1.4
v 1.56462e-007 0.1 -1.5
v 0.3 0 -1.5
v 0.3 0 -1.6
v 0.3 0.1 -1.5
v 0.3 0.1 -1.6
v 0.5 0 -1.6
v 0.5 0 -1.7
v 0.5 0.1 -1.6
v 0.5 0.1 -1.7
v 0.6 0 -1.7
v 0.6 0 -1.8
v 0.6 0.1 -1.7
v 0.6 0.1 -1.8
v 0.7 0 -1.8
v 0.7 0 -1.9
v 0.7 0.1 -1.8
v 0.7 0.1 -1.9
v 2.4 0 -1.2
v 2.4 0 -1.3
v 2.4 0.1 -1.2
v 2.4 0.1 -1.3
v 2.5 0 -1.3
v 2.5 0 -1.4
v 2.5 0.1 -1.3
v 2.5 0.1 -1.4
v 2.7 0 -1.4
v 2.7 0 -1.5
v 2.7 0.1 -1.4
v 2.7 0.1 -1.5
v 2.8 0 -1.5
v 2.8 0 -1.6
v 2.8 0.1 -1.5
v 2.8 0.1 -1.6
v 2.9 0 -1.6
v 2.9 0 -1.7
v 2.9 0.1 -1.6
v 2.9 0.1 -1.7
v 3 0 -1.7
v 3 0 -1.8
v 3 0.1 -1.7
v 3 0.1 -1.8
v -3.9 0 -0.8
v -3.9 0 -0.9
v -3.9 0.1 -0.8
v -3.9 0.1 -0.9
v -3.8 0 -0.9
v -3.8 0 -1.1
v -3.8 0.1 -0.9
v -3.8 0.1 -1.1
v -3.7 0 -1.2
v -3.7 0 -1.3
v -3.7 0.1 -1.2
v -3.7 0.1 -1.3
v -2.1 0 -1
v -2.1 0 -1.4
v -2.1 0.1 -1
v -2.1 0.1 -1.4
v -2 0 -1.4
v -2 0 -1.6
v -2 0.1 -1.4
v -2 0.1 -1.6
v -1.9 0 -0.9
v -1.9 0 -1
v -1.9 0 -1.6
v -1.9 0 -2
v -1.9 0.1 -0.9
v -1.9 0.1 -1
v -1.9 0.1 -1.6
v -1.9 0.1 -2
v -1.8 0 -0.8
v -1.8 0 -0.9
v -1.8 0.1 -0.8
v -1.8 0.1 -0.9
v -0.9 0 -1.8
v -0.9 0 -2
v -0.9 0.1 -1.8
v -0.9 0.1 -2
v -0.7 0 -1.7
v -0.7 0 -1.8
v -0.7 0.1 -1.7
v -0.7 0.1 -1.8
v -0.6 0 -1.6
v -0.6 0 -1.7
v -0.6 0.1 -1.6
v -0.6 0.1 -1.7
v -0.3 0 -1.5
v -0.3 0 -1.6
v -0.3 0.1 -1.5
v -0.3 0.1 -1.6
v -0.2 0 -1.4
v -0.2 0 -1.5
v -0.2 0.1 -1.4
v -0.2 0.1 -1.5
v 1 0 -1.8
v 1 0 -1.9
v 1 0.1 -1.8
v 1 0.1 -1.9
v 1.1 0 -1.7
v 1.1 0 -1.8
v 1.1 0.1 -1.7
v 1.1 0.1 -1.8
v 1.2 0 -1.6
v 1.2 0 -1.7
v 1.2 0.1 -1.6
v 1.2 0.1 -1.7
v 1.5 0 -1.5
v 1.5 0 -1.6
v 1.5 0.1 -1.5
v 1.5 0.1 -1.6
v 1.6 0 -1.4
v 1.6 0 -1.5
v 1.6 0.1 -1.4
v 1.6 0.1 -1.5
v 1.9 0 -1.3
v 1.9 0 -1.4
v 1.9 0.1 -1.3
v 1.9 0.1 -1.4
v 2.2 0 -1.2
v 2.2 0 -1.3
v 2.2 0.1 -1.2
v 2.2 0.1 -1.3
v 3.2 0 -1.7
v 3.2 0 -1.8
v 3.2 0.1 -1.7
v 3.2 0.1 -1.8
v 3.5 0 -1.6
v 3.5 0 -1.7
v 3.5 0.1 -1.6
v 3.5 0.1 -1.7
v 3.6 0 -1.4
v 3.6 0 -1.5
v 3.6 0.1 -1.4
v 3.6 0.1 -1.5
v 3.7 0 -1.2
v 3.7 0 -1.4
v 3.7 0 -1.5
v 3.7 0 -1.6
v 3.7 0.1 -1.2
v 3.7 0.1 -1.4
v 3.7 0.1 -1.5
v 3.7 0.1 -1.6
v 3.9 0 -1
v 3.9 0 -1.2
v 3.9 0.1 -1
v 3.9 0.1 -1.2
v 4 0 2
v 4 0 -1
v 4 0.1 2
v 4 0.1 -1
v -4 0 2
v -4 0.1 2
v -3.5 0 2
v -3.5 0.1 2
v 3.5 0 2
v 3.5 0.1 2
v 4 0 2
v 4 0.1 2
v -3.9 0 -0.9
v -3.9 0.1 -0.9
v -3.8 0 -0.9
v -3.8 0.1 -0.9
v -3.8 0 -1.2
v -3.8 0.1 -1.2
v -3.7 0 -1.2
v -3.7 0.1 -1.2
v -1.4 0 -1.2
v -1.4 0.1 -1.2
v -1.3 0 -1.2
v -1.3 0.1 -1.2
v -2.1 0 -1.4
v -2.1 0.1 -1.4
v -2 0 -1.4
v -2 0.1 -1.4
v -1.4 0 -1.5
v -1.4 0.1 -1.5
v -1.3 0 -1.5
v -1.3 0.1 -1.5
v 3.6 0 -1.5
v 3.6 0.1 -1.5
v 3.7 0 -1.5
v 3.7 0.1 -1.5
v -2 0 -1.6
v -2 0.1 -1.6
v -1.9 0 -1.6
v -1.9 0.1 -1.6
v -3.9 0 -0.8
v -3.9 0.1 -0.8
v -3.8 0 -0.8
v -3.8 0.1 -0.8
v -1.8 0 -0.8
v -1.8 0.1 -0.8
v -1.5 0 -0.8
v -1.5 0.1 -0.8
v -3.8 0 -0.9
v -3.8 0.1 -0.9
v -3.6 0 -0.9
v -3.6 0.1 -0.9
v -1.9 0 -0.9
v -1.9 0.1 -0.9
v -1.8 0 -0.9
v -1.8 0.1 -0.9
v -1.5 0 -0.9
v -1.5 0.1 -0.9
v -1.4 0 -0.9
v -1.4 0.1 -0.9
v -4 0 -1
v -4 0.1 -1
v -3.9 0 -1
v -3.9 0.1 -1
v -2.1 0 -1
v -2.1 0.1 -1
v -1.9 0 -1
v -1.9 0.1 -1
v -1.4 0 -1
v -1.4 0.1 -1
v -1.3 0 -1
v -1.3 0.1 -1
v 3.9 0 -1
v 3.9 0.1 -1
v 4 0 -1
v 4 0.1 -1
v -3.9 0 -1.1
v -3.9 0.1 -1.1
v -3.8 0 -1.1
v -3.8 0.1 -1.1
v -3.6 0 -1.2
v -3.6 0.1 -1.2
v -3.5 0 -1.2
v -3.5 0.1 -1.2
v -3.4 0 -1.2
v -3.4 0.1 -1.2
v 2.2 0 -1.2
v 2.2 0.1 -1.2
v 2.4 0 -1.2
v 2.4 0.1 -1.2
v 3.7 0 -1.2
v 3.7 0.1 -1.2
v 3.9 0 -1.2
v 3.9 0.1 -1.2
v -3.8 0 -1.3
v -3.8 0.1 -1.3
v -3.7 0 -1.3
v -3.7 0.1 -1.3
v -3.4 0 -1.3
v -3.4 0.1 -1.3
v -3.2 0 -1.3
v -3.2 0.1 -1.3
v 1.9 0 -1.3
v 1.9 0.1 -1.3
v 2.2 0 -1.3
v 2.2 0.1 -1.3
v 2.4 0 -1.3
v 2.4 0.1 -1.3
v 2.5 0 -1.3
v 2.5 0.1 -1.3
v -1.4 0 -1.4
v -1.4 0.1 -1.4
v -1.3 0 -1.4
v -1.3 0.1 -1.4
v -0.2 0 -1.4
v -0.2 0.1 -1.4
v 1.56462e-007 0 -1.4
v 1.56462e-007 0.1 -1.4
v 1.6 0 -1.4
v 1.6 0.1 -1.4
v 1.9 0 -1.4
v 1.9 0.1 -1.4
v 2.5 0 -1.4
v 2.5 0.1 -1.4
v 2.7 0 -1.4
v 2.7 0.1 -1.4
v 3.6 0 -1.4
v 3.6 0.1 -1.4
v 3.7 0 -1.4
v 3.7 0.1 -1.4
v -0.3 0 -1.5
v -0.3 0.1 -1.5
v -0.2 0 -1.5
v -0.2 0.1 -1.5
v 1.56462e-007 0 -1.5
v 1.56462e-007 0.1 -1.5
v 0.3 0 -1.5
v 0.3 0.1 -1.5
v 1.5 0 -1.5
v 1.5 0.1 -1.5
v 1.6 0 -1.5
v 1.6 0.1 -1.5
v 2.7 0 -1.5
v 2.7 0.1 -1.5
v 2.8 0 -1.5
v 2.8 0.1 -1.5
v -1.4 0 -1.6
v -1.4 0.1 -1.6
v -1.3 0 -1.6
v -1.3 0.1 -1.6
v -0.6 0 -1.6
v -0.6 0.1 -1.6
v -0.3 0 -1.6
v -0.3 0.1 -1.6
v 0.3 0 -1.6
v 0.3 0.1 -1.6
v 0.5 0 -1.6
v 0.5 0.1 -1.6
v 1.2 0 -1.6
v 1.2 0.1 -1.6
v 1.5 0 -1.6
v 1.5 0.1 -1.6
v 2.8 0 -1.6
v 2.8 0.1 -1.6
v 2.9 0 -1.6
v 2.9 0.1 -1.6
v 3.5 0 -1.6
v 3.5 0.1 -1.6
v 3.7 0 -1.6
v 3.7 0.1 -1.6
v -3.2 0 -1.7
v -3.2 0.1 -1.7
v -3.1 0 -1.7
v -3.1 0.1 -1.7
v -0.7 0 -1.7
v -0.7 0.1 -1.7
v -0.6 0 -1.7
v -0.6 0.1 -1.7
v 0.5 0 -1.7
v 0.5 0.1 -1.7
v 0.6 0 -1.7
v 0.6 0.1 -1.7
v 1.1 0 -1.7
v 1.1 0.1 -1.7
v 1.2 0 -1.7
v 1.2 0.1 -1.7
v 2.9 0 -1.7
v 2.9 0.1 -1.7
v 3 0 -1.7
v 3 0.1 -1.7
v 3.2 0 -1.7
v 3.2 0.1 -1.7
v 3.3 0 -1.7
v 3.3 0.1 -1.7
v 3.5 0 -1.7
v 3.5 0.1 -1.7
v -1.3 0 -1.8
v -1.3 0.1 -1.8
v -1.2 0 -1.8
v -1.2 0.1 -1.8
v -0.9 0 -1.8
v -0.9 0.1 -1.8
v -0.7 0 -1.8
v -0.7 0.1 -1.8
v 0.6 0 -1.8
v 0.6 0.1 -1.8
v 0.7 0 -1.8
v 0.7 0.1 -1.8
v 1 0 -1.8
v 1 0.1 -1.8
v 1.1 0 -1.8
v 1.1 0.1 -1.8
v 3 0 -1.8
v 3 0.1 -1.8
v 3.2 0 -1.8
v 3.2 0.1 -1.8
v -3.1 0 -1.9
v -3.1 0.1 -1.9
v -2.3 0 -1.9
v -2.3 0.1 -1.9
v -1.2 0 -1.9
v -1.2 0.1 -1.9
v -1.1 0 -1.9
v -1.1 0.1 -1.9
v 0.7 0 -1.9
v 0.7 0.1 -1.9
v 1 0 -1.9
v 1 0.1 -1.9
v -2.3 0 -2
v -2.3 0.1 -2
v -1.9 0 -2
v -1.9 0.1 -2
v -1.1 0 -2
v -1.1 0.1 -2
v -0.9 0 -2
v -0.9 0.1 -2
v -4 0 2
v -3.5 0 2
v 3.5 0 2
v 4 0 2
v -3.5 0 1.8
v 3.3 0 1.8
v -0.2 0 1.5
v 0.4 0 1.5
v -3.9 0 -0.8
v -3.8 0 -0.8
v -1.8 0 -0.8
v -1.5 0 -0.8
v -3.9 0 -0.9
v -3.8 0 -0.9
v -3.6 0 -0.9
v -1.9 0 -0.9
v -1.8 0 -0.9
v -1.5 0 -0.9
v -1.4 0 -0.9
v -4 0 -1
v -3.9 0 -1
v -2.1 0 -1
v -1.9 0 -1
v -1.4 0 -1
v -1.3 0 -1
v 3.9 0 -1
v 4 0 -1
v -3.9 0 -1.1
v -3.8 0 -1.1
v -3.8 0 -1.2
v -3.7 0 -1.2
v -3.6 0 -1.2
v -3.5 0 -1.2
v -3.4 0 -1.2
v -1.4 0 -1.2
v -1.3 0 -1.2
v 2.2 0 -1.2
v 2.4 0 -1.2
v 3.7 0 -1.2
v 3.9 0 -1.2
v -3.8 0 -1.3
v -3.7 0 -1.3
v -3.4 0 -1.3
v -3.2 0 -1.3
v -0.2 0 -1.3
v 0.1 0 -1.3
v 1.9 0 -1.3
v 2.2 0 -1.3
v 2.4 0 -1.3
v 2.5 0 -1.3
v -2.1 0 -1.4
v -2 0 -1.4
v -1.4 0 -1.4
v -1.3 0 -1.4
v -0.2 0 -1.4
v 1.56462e-007 0 -1.4
v 0.1 0 -1.4
v 0.3 0 -1.4
v 1.6 0 -1.4
v 1.9 0 -1.4
v 2.5 0 -1.4
v 2.7 0 -1.4
v 3.6 0 -1.4
v 3.7 0 -1.4
v -1.4 0 -1.5
v -1.3 0 -1.5
v -0.3 0 -1.5
v -0.2 0 -1.5
v 1.56462e-007 0 -1.5
v 0.3 0 -1.5
v 0.4 0 -1.5
v 1.5 0 -1.5
v 1.6 0 -1.5
v 2.7 0 -1.5
v 2.8 0 -1.5
v 3.6 0 -1.5
v 3.7 0 -1.5
v -2 0 -1.6
v -1.9 0 -1.6
v -1.4 0 -1.6
v -1.3 0 -1.6
v -0.6 0 -1.6
v -0.3 0 -1.6
v 0.3 0 -1.6
v 0.5 0 -1.6
v 1.2 0 -1.6
v 1.5 0 -1.6
v 2.8 0 -1.6
v 2.9 0 -1.6
v 3.5 0 -1.6
v 3.7 0 -1.6
v -3.2 0 -1.7
v -3.1 0 -1.7
v -0.7 0 -1.7
v -0.6 0 -1.7
v 0.5 0 -1.7
v 0.6 0 -1.7
v 1.1 0 -1.7
v 1.2 0 -1.7
v 2.9 0 -1.7
v 3 0 -1.7
v 3.2 0 -1.7
v 3.3 0 -1.7
v 3.5 0 -1.7
v -1.3 0 -1.8
v -1.2 0 -1.8
v -0.9 0 -1.8
v -0.7 0 -1.8
v 0.6 0 -1.8
v 0.7 0 -1.8
v 1 0 -1.8
v 1.1 0 -1.8
v 3 0 -1.8
v 3.2 0 -1.8
v -3.1 0 -1.9
v -2.3 0 -1.9
v -1.2 0 -1.9
v -1.1 0 -1.9
v 0.7 0 -1.9
v 1 0 -1.9
v -2.3 0 -2
v -1.9 0 -2
v -1.1 0 -2
v -0.9 0 -2
v -4 0.1 2
v -3.5 0.1 2
v 3.5 0.1 2
v 4 0.1 2
v -3.5 0.1 1.8
v 3.3 0.1 1.8
v -0.2 0.1 1.5
v 0.4 0.1 1.5
v -3.9 0.1 -0.8
v -3.8 0.1 -0.8
v -1.8 0.1 -0.8
v -1.5 0.1 -0.8
v -3.9 0.1 -0.9
v -3.8 0.1 -0.9
v -3.6 0.1 -0.9
v -1.9 0.1 -0.9
v -1.8 0.1 -0.9
v -1.5 0.1 -0.9
v -1.4 0.1 -0.9
v -4 0.1 -1
v -3.9 0.1 -1
v -2.1 0.1 -1
v -1.9 0.1 -1
v -1.4 0.1 -1
v -1.3 0.1 -1
v 3.9 0.1 -1
v 4 0.1 -1
v -3.9 0.1 -1.1
v -3.8 0.1 -1.1
v -3.8 0.1 -1.2
v -3.7 0.1 -1.2
v -3.6 0.1 -1.2
v -3.5 0.1 -1.2
v -3.4 0.1 -1.2
v -1.4 0.1 -1.2
v -1.3 0.1 -1.2
v 2.2 0.1 -1.2
v 2.4 0.1 -1.2
v 3.7 0.1 -1.2
v 3.9 0.1 -1.2
v -3.8 0.1 -1.3
v -3.7 0.1 -1.3
v -3.4 0.1 -1.3
v -3.2 0.1 -1.3
v -0.2 0.1 -1.3
v 0.1 0.1 -1.3
v 1.9 0.1 -1.3
v 2.2 0.1 -1.3
v 2.4 0.1 -1.3
v 2.5 0.1 -1.3
v -2.1 0.1 -1.4
v -2 0.1 -1.4
v -1.4 0.1 -1.4
v -1.3 0.1 -1.4
v -0.2 0.1 -1.4
v 1.56462e-007 0.1 -1.4
v 0.1 0.1 -1.4
v 0.3 0.1 -1.4
v 1.6 0.1 -1.4
v 1.9 0.1 -1.4
v 2.5 0.1 -1.4
v 2.7 0.1 -1.4
v 3.6 0.1 -1.4
v 3.7 0.1 -1.4
v -1.4 0.1 -1.5
v -1.3 0.1 -1.5
v -0.3 0.1 -1.5
v -0.2 0.1 -1.5
v 1.56462e-007 0.1 -1.5
v 0.3 0.1 -1.5
v 0.4 0.1 -1.5
v 1.5 0.1 -1.5
v 1.6 0.1 -1.5
v 2.7 0.1 -1.5
v 2.8 0.1 -1.5
v 3.6 0.1 -1.5
v 3.7 0.1 -1.5
v -2 0.1 -1.6
v -1.9 0.1 -1.6
v -1.4 0.1 -1.6
v -1.3 0.1 -1.6
v -0.6 0.1 -1.6
v -0.3 0.1 -1.6
v 0.3 0.1 -1.6
v 0.5 0.1 -1.6
v 1.2 0.1 -1.6
v 1.5 0.1 -1.6
v 2.8 0.1 -1.6
v 2.9 0.1 -1.6
v 3.5 0.1 -1.6
v 3.7 0.1 -1.6
v -3.2 0.1 -1.7
v -3.1 0.1 -1.7
v -0.7 0.1 -1.7
v -0.6 0.1 -1.7
v 0.5 0.1 -1.7
v 0.6 0.1 -1.7
v 1.1 0.1 -1.7
v 1.2 0.1 -1.7
v 2.9 0.1 -1.7
v 3 0.1 -1.7
v 3.2 0.1 -1.7
v 3.3 0.1 -1.7
v 3.5 0.1 -1.7
v -1.3 0.1 -1.8
v -1.2 0.1 -1.8
v -0.9 0.1 -1.8
v -0.7 0.1 -1.8
v 0.6 0.1 -1.8
v 0.7 0.1 -1.8
v 1 0.1 -1.8
v 1.1 0.1 -1.8
v 3 0.1 -1.8
v 3.2 0.1 -1.8
v -3.1 0.1 -1.9
v -2.3 0.1 -1.9
v -1.2 0.1 -1.9
v -1.1 0.1 -1.9
v 0.7 0.1 -1.9
v 1 0.1 -1.9
v -2.3 0.1 -2
v -1.9 0.1 -2
v -1.1 0.1 -2
v -0.9 0.1 -2

# faces
f 3/2/1 2/2/1 1/2/1
f 4/2/1 2/2/1 3/2/1
f 7/2/1 6/2/1 5/2/1
f 8/2/1 6/2/1 7/2/1
f 13/2/1 10/2/1 9/2/1
f 14/2/1 10/2/1 13/2/1
f 15/2/1 12/2/1 11/2/1
f 16/2/1 12/2/1 15/2/1
f 19/2/1 18/2/1 17/2/1
f 20/2/1 18/2/1 19/2/1
f 23/4/1 22/4/1 21/4/1
f 24/4/1 22/4/1 23/4/1
f 27/4/1 26/4/1 25/4/1
f 28/4/1 26/4/1 27/4/1
f 31/4/1 30/4/1 29/4/1
f 32/4/1 30/4/1 31/4/1
f 35/4/1 34/4/1 33/4/1
f 36/4/1 34/4/1 35/4/1
f 39/4/1 38/4/1 37/4/1
f 40/4/1 38/4/1 39/4/1
f 47/4/1 42/4/1 41/4/1
f 48/4/1 42/4/1 47/4/1
f 49/4/1 44/4/1 43/4/1
f 50/4/1 44/4/1 49/4/1
f 51/4/1 46/4/1 45/4/1
f 52/4/1 46/4/1 51/4/1
f 59/4/1 54/4/1 53/4/1
f 60/4/1 54/4/1 59/4/1
f 61/4/1 56/4/1 55/4/1
f 62/4/1 56/4/1 61/4/1
f 63/4/1 58/4/1 57/4/1
f 64/4/1 58/4/1 63/4/1
f 67/4/1 66/4/1 65/4/1
f 68/4/1 66/4/1 67/4/1
f 71/4/1 70/4/1 69/4/1
f 72/4/1 70/4/1 71/4/1
f 75/4/1 74/4/1 73/4/1
f 76/4/1 74/4/1 75/4/1
f 79/4/1 78/4/1 77/4/1
f 80/4/1 78/4/1 79/4/1
f 83/4/1 82/4/1 81/4/1
f 84/4/1 82/4/1 83/4/1
f 87/4/1 86/4/1 85/4/1
f 88/4/1 86/4/1 87/4/1
f 91/4/1 90/4/1 89/4/1
f 92/4/1 90/4/1 91/4/1
f 95/4/1 94/4/1 93/4/1
f 96/4/1 94/4/1 95/4/1
f 99/4/1 98/4/1 97/4/1
f 100/4/1 98/4/1 99/4/1
f 103/4/1 102/4/1 101/4/1
f 104/4/1 102/4/1 103/4/1
f 107/4/1 106/4/1 105/4/1
f 108/4/1 106/4/1 107/4/1
f 111/4/1 110/4/1 109/4/1
f 112/4/1 110/4/1 111/4/1
f 115/4/1 114/4/1 113/4/1
f 116/4/1 114/4/1 115/4/1
f 117/2/2 118/2/2 119/2/2
f 119/2/2 118/2/2 120/2/2
f 121/2/2 122/2/2 123/2/2
f 123/2/2 122/2/2 124/2/2
f 125/2/2 126/2/2 127/2/2
f 127/2/2 126/2/2 128/2/2
f 129/4/2 130/4/2 131/4/2
f 131/4/2 130/4/2 132/4/2
f 133/4/2 134/4/2 135/4/2
f 135/4/2 134/4/2 136/4/2
f 137/4/2 138/4/2 141/4/2
f 141/4/2 138/4/2 142/4/2
f 139/4/2 140/4/2 143/4/2
f 143/4/2 140/4/2 144/4/2
f 145/4/2 146/4/2 147/4/2
f 147/4/2 146/4/2 148/4/2
f 149/4/2 150/4/2 151/4/2
f 151/4/2 150/4/2 152/4/2
f 153/4/2 154/4/2 155/4/2
f 155/4/2 154/4/2 156/4/2
f 157/4/2 158/4/2 159/4/2
f 159/4/2 158/4/2 160/4/2
f 161/4/2 162/4/2 163/4/2
f 163/4/2 162/4/2 164/4/2
f 165/4/2 166/4/2 167/4/2
f 167/4/2 166/4/2 168/4/2
f 169/4/2 170/4/2 171/4/2
f 171/4/2 170/4/2 172/4/2
f 173/4/2 174/4/2 175/4/2
f 175/4/2 174/4/2 176/4/2
f 177/4/2 178/4/2 179/4/2
f 179/4/2 178/4/2 180/4/2
f 181/4/2 182/4/2 183/4/2
f 183/4/2 182/4/2 184/4/2
f 185/4/2 186/4/2 187/4/2
f 187/4/2 186/4/2 188/4/2
f 189/4/2 190/4/2 191/4/2
f 191/4/2 190/4/2 192/4/2
f 193/4/2 194/4/2 195/4/2
f 195/4/2 194/4/2 196/4/2
f 197/4/2 198/4/2 199/4/2
f 199/4/2 198/4/2 200/4/2
f 201/1/2 202/1/2 203/1/2
f 203/1/2 202/1/2 204/1/2
f 205/2/2 206/2/2 207/2/2
f 207/2/2 206/2/2 208/2/2
f 209/2/2 210/2/2 213/2/2
f 213/2/2 210/2/2 214/2/2
f 211/2/2 212/2/2 215/2/2
f 215/2/2 212/2/2 216/2/2
f 217/2/2 218/2/2 219/2/2
f 219/2/2 218/2/2 220/2/2
f 221/2/2 222/2/2 223/2/2
f 223/2/2 222/2/2 224/2/2
f 227/2/3 226/2/3 225/2/3
f 228/2/3 226/2/3 227/2/3
f 229/1/3 228/1/3 227/1/3
f 230/1/3 228/1/3 229/1/3
f 231/2/3 230/2/3 229/2/3
f 232/2/3 230/2/3 231/2/3
f 235/2/3 234/2/3 233/2/3
f 236/2/3 234/2/3 235/2/3
f 239/2/3 238/2/3 237/2/3
f 240/2/3 238/2/3 239/2/3
f 243/4/3 242/4/3 241/4/3
f 244/4/3 242/4/3 243/4/3
f 247/4/3 246/4/3 245/4/3
f 248/4/3 246/4/3 247/4/3
f 251/4/3 250/4/3 249/4/3
f 252/4/3 250/4/3 251/4/3
f 255/2/3 254/2/3 253/2/3
f 256/2/3 254/2/3 255/2/3
f 259/4/3 258/4/3 257/4/3
f 260/4/3 258/4/3 259/4/3
f 261/2/4 262/2/4 263/2/4
f 263/2/4 262/2/4 264/2/4
f 265/4/4 266/4/4 267/4/4
f 267/4/4 266/4/4 268/4/4
f 269/2/4 270/2/4 271/2/4
f 271/2/4 270/2/4 272/2/4
f 273/4/4 274/4/4 275/4/4
f 275/4/4 274/4/4 276/4/4
f 277/4/4 278/4/4 279/4/4
f 279/4/4 278/4/4 280/4/4
f 281/2/4 282/2/4 283/2/4
f 283/2/4 282/2/4 284/2/4
f 285/4/4 286/4/4 287/4/4
f 287/4/4 286/4/4 288/4/4
f 289/4/4 290/4/4 291/4/4
f 291/4/4 290/4/4 292/4/4
f 293/2/4 294/2/4 295/2/4
f 295/2/4 294/2/4 296/2/4
f 297/2/4 298/2/4 299/2/4
f 299/2/4 298/2/4 300/2/4
f 301/2/4 302/2/4 303/2/4
f 303/2/4 302/2/4 304/2/4
f 303/4/4 304/4/4 305/4/4
f 305/4/4 304/4/4 306/4/4
f 307/4/4 308/4/4 309/4/4
f 309/4/4 308/4/4 310/4/4
f 311/2/4 312/2/4 313/2/4
f 313/2/4 312/2/4 314/2/4
f 315/2/4 316/2/4 317/2/4
f 317/2/4 316/2/4 318/2/4
f 319/4/4 320/4/4 321/4/4
f 321/4/4 320/4/4 322/4/4
f 323/4/4 324/4/4 325/4/4
f 325/4/4 324/4/4 326/4/4
f 327/4/4 328/4/4 329/4/4
f 329/4/4 328/4/4 330/4/4
f 331/4/4 332/4/4 333/4/4
f 333/4/4 332/4/4 334/4/4
f 335/4/4 336/4/4 337/4/4
f 337/4/4 336/4/4 338/4/4
f 339/4/4 340/4/4 341/4/4
f 341/4/4 340/4/4 342/4/4
f 343/4/4 344/4/4 345/4/4
f 345/4/4 344/4/4 346/4/4
f 347/2/4 348/2/4 349/2/4
f 349/2/4 348/2/4 350/2/4
f 351/4/4 352/4/4 353/4/4
f 353/4/4 352/4/4 354/4/4
f 355/4/4 356/4/4 357/4/4
f 357/4/4 356/4/4 358/4/4
f 359/4/4 360/4/4 361/4/4
f 361/4/4 360/4/4 362/4/4
f 363/4/4 364/4/4 365/4/4
f 365/4/4 364/4/4 366/4/4
f 367/4/4 368/4/4 369/4/4
f 369/4/4 368/4/4 370/4/4
f 371/4/4 372/4/4 373/4/4
f 373/4/4 372/4/4 374/4/4
f 375/4/4 376/4/4 377/4/4
f 377/4/4 376/4/4 378/4/4
f 379/4/4 380/4/4 381/4/4
f 381/4/4 380/4/4 382/4/4
f 383/4/4 384/4/4 385/4/4
f 385/4/4 384/4/4 386/4/4
f 387/2/4 388/2/4 389/2/4
f 389/2/4 388/2/4 390/2/4
f 391/4/4 392/4/4 393/4/4
f 393/4/4 392/4/4 394/4/4
f 395/4/4 396/4/4 397/4/4
f 397/4/4 396/4/4 398/4/4
f 399/4/4 400/4/4 401/4/4
f 401/4/4 400/4/4 402/4/4
f 403/4/4 404/4/4 405/4/4
f 405/4/4 404/4/4 406/4/4
f 407/4/4 408/4/4 409/4/4
f 409/4/4 408/4/4 410/4/4
f 411/4/4 412/4/4 413/4/4
f 413/4/4 412/4/4 414/4/4
f 413/1/4 414/1/4 415/1/4
f 415/1/4 414/1/4 416/1/4
f 417/4/4 418/4/4 419/4/4
f 419/4/4 418/4/4 420/4/4
f 421/4/4 422/4/4 423/4/4
f 423/4/4 422/4/4 424/4/4
f 425/4/4 426/4/4 427/4/4
f 427/4/4 426/4/4 428/4/4
f 429/4/4 430/4/4 431/4/4
f 431/4/4 430/4/4 432/4/4
f 433/4/4 434/4/4 435/4/4
f 435/4/4 434/4/4 436/4/4
f 437/4/4 438/4/4 439/4/4
f 439/4/4 438/4/4 440/4/4
f 441/4/4 442/4/4 443/4/4
f 443/4/4 442/4/4 444/4/4
f 445/4/4 446/4/4 447/4/4
f 447/4/4 446/4/4 448/4/4
f 449/4/4 450/4/4 451/4/4
f 451/4/4 450/4/4 452/4/4
f 453/4/4 454/4/4 455/4/4
f 455/4/4 454/4/4 456/4/4
f 461/2/5 458/2/5 457/2/5
f 461/1/5 459/1/5 458/1/5
f 462/1/5 459/1/5 461/1/5
f 463/4/5 462/4/5 461/4/5
f 464/4/5 462/4/5 463/4/5
f 465/2/5 461/2/5 457/2/5
f 466/2/5 461/2/5 465/2/5
f 467/4/5 463/4/5 461/4/5
f 468/4/5 463/4/5 467/4/5
f 469/2/5 465/2/5 457/2/5
f 470/2/5 461/2/5 466/2/5
f 471/2/5 461/2/5 470/2/5
f 472/4/5 467/4/5 461/4/5
f 473/4/5 467/4/5 472/4/5
f 474/4/5 463/4/5 468/4/5
f 475/4/5 463/4/5 474/4/5
f 476/2/5 469/2/5 457/2/5
f 476/2/5 470/2/5 469/2/5
f 477/2/5 470/2/5 476/2/5
f 478/4/5 472/4/5 461/4/5
f 479/4/5 472/4/5 478/4/5
f 480/4/5 463/4/5 475/4/5
f 481/4/5 463/4/5 480/4/5
f 482/2/5 460/2/5 459/2/5
f 483/2/5 460/2/5 482/2/5
f 484/2/5 470/2/5 477/2/5
f 485/2/5 470/2/5 484/2/5
f 488/2/5 461/2/5 471/2/5
f 489/4/5 478/4/5 461/4/5
f 489/2/5 461/2/5 488/2/5
f 490/4/5 478/4/5 489/4/5
f 492/4/5 463/4/5 481/4/5
f 493/4/5 462/4/5 464/4/5
f 494/4/5 462/4/5 493/4/5
f 495/2/5 482/2/5 459/2/5
f 496/2/5 482/2/5 495/2/5
f 497/2/5 487/2/5 486/2/5
f 498/2/5 487/2/5 497/2/5
f 499/4/5 478/4/5 490/4/5
f 500/4/5 478/4/5 499/4/5
f 501/4/5 492/4/5 491/4/5
f 501/3/5 464/3/5 463/3/5
f 501/4/5 463/4/5 492/4/5
f 502/3/5 464/3/5 501/3/5
f 503/4/5 493/4/5 464/4/5
f 504/4/5 493/4/5 503/4/5
f 505/4/5 462/4/5 494/4/5
f 506/4/5 462/4/5 505/4/5
f 507/4/5 478/4/5 500/4/5
f 509/4/5 502/4/5 501/4/5
f 509/4/5 501/4/5 491/4/5
f 510/4/5 502/4/5 509/4/5
f 511/4/5 502/4/5 510/4/5
f 512/4/5 502/4/5 511/4/5
f 513/3/5 464/3/5 502/3/5
f 513/4/5 502/4/5 512/4/5
f 514/3/5 464/3/5 513/3/5
f 515/4/5 503/4/5 464/4/5
f 516/4/5 503/4/5 515/4/5
f 517/4/5 462/4/5 506/4/5
f 518/4/5 462/4/5 517/4/5
f 519/2/5 495/2/5 459/2/5
f 520/2/5 495/2/5 519/2/5
f 522/4/5 511/4/5 510/4/5
f 523/4/5 511/4/5 522/4/5
f 524/4/5 511/4/5 523/4/5
f 525/4/5 513/4/5 512/4/5
f 525/4/5 514/4/5 513/4/5
f 526/3/5 464/3/5 514/3/5
f 526/4/5 514/4/5 525/4/5
f 527/4/5 515/4/5 464/4/5
f 527/3/5 464/3/5 526/3/5
f 528/4/5 515/4/5 527/4/5
f 529/4/5 515/4/5 528/4/5
f 530/4/5 462/4/5 518/4/5
f 531/4/5 462/4/5 530/4/5
f 532/2/5 519/2/5 459/2/5
f 534/4/5 508/4/5 507/4/5
f 536/4/5 523/4/5 522/4/5
f 536/4/5 522/4/5 521/4/5
f 537/4/5 523/4/5 536/4/5
f 538/4/5 523/4/5 537/4/5
f 539/4/5 523/4/5 538/4/5
f 540/4/5 528/4/5 527/4/5
f 540/4/5 527/4/5 526/4/5
f 541/4/5 528/4/5 540/4/5
f 542/4/5 528/4/5 541/4/5
f 543/4/5 528/4/5 542/4/5
f 544/4/5 462/4/5 531/4/5
f 545/4/5 462/4/5 544/4/5
f 546/1/5 459/1/5 462/1/5
f 546/2/5 533/2/5 532/2/5
f 546/2/5 532/2/5 459/2/5
f 547/2/5 533/2/5 546/2/5
f 548/4/5 507/4/5 500/4/5
f 548/4/5 535/4/5 534/4/5
f 548/4/5 534/4/5 507/4/5
f 549/4/5 535/4/5 548/4/5
f 550/4/5 538/4/5 537/4/5
f 551/4/5 538/4/5 550/4/5
f 552/4/5 542/4/5 541/4/5
f 553/4/5 542/4/5 552/4/5
f 554/4/5 542/4/5 553/4/5
f 555/4/5 542/4/5 554/4/5
f 556/4/5 462/4/5 545/4/5
f 557/4/5 462/4/5 556/4/5
f 558/4/5 462/4/5 557/4/5
f 559/1/5 546/1/5 462/1/5
f 559/4/5 462/4/5 558/4/5
f 560/1/5 546/1/5 559/1/5
f 561/4/5 550/4/5 537/4/5
f 562/4/5 550/4/5 561/4/5
f 563/4/5 550/4/5 562/4/5
f 564/4/5 550/4/5 563/4/5
f 565/4/5 554/4/5 553/4/5
f 566/4/5 554/4/5 565/4/5
f 567/4/5 554/4/5 566/4/5
f 568/4/5 554/4/5 567/4/5
f 569/4/5 558/4/5 557/4/5
f 570/4/5 558/4/5 569/4/5
f 571/4/5 535/4/5 549/4/5
f 572/4/5 535/4/5 571/4/5
f 573/4/5 563/4/5 562/4/5
f 574/4/5 563/4/5 573/4/5
f 575/4/5 567/4/5 566/4/5
f 576/4/5 567/4/5 575/4/5
f 577/4/5 535/4/5 572/4/5
f 578/4/5 535/4/5 577/4/5
f 579/4/5 563/4/5 574/4/5
f 580/4/5 563/4/5 579/4/5
f 581/2/6 582/2/6 585/2/6
f 582/1/6 583/1/6 585/1/6
f 585/1/6 583/1/6 586/1/6
f 585/4/6 586/4/6 587/4/6
f 587/4/6 586/4/6 588/4/6
f 581/2/6 585/2/6 589/2/6
f 589/2/6 585/2/6 590/2/6
f 585/4/6 587/4/6 591/4/6
f 591/4/6 587/4/6 592/4/6
f 581/2/6 589/2/6 593/2/6
f 590/2/6 585/2/6 594/2/6
f 594/2/6 585/2/6 595/2/6
f 585/4/6 591/4/6 596/4/6
f 596/4/6 591/4/6 597/4/6
f 592/4/6 587/4/6 598/4/6
f 598/4/6 587/4/6 599/4/6
f 581/2/6 593/2/6 600/2/6
f 593/2/6 594/2/6 600/2/6
f 600/2/6 594/2/6 601/2/6
f 585/4/6 596/4/6 602/4/6
f 602/4/6 596/4/6 603/4/6
f 599/4/6 587/4/6 604/4/6
f 604/4/6 587/4/6 605/4/6
f 583/2/6 584/2/6 606/2/6
f 606/2/6 584/2/6 607/2/6
f 601/2/6 594/2/6 608/2/6
f 608/2/6 594/2/6 609/2/6
f 595/2/6 585/2/6 612/2/6
f 585/4/6 602/4/6 613/4/6
f 612/2/6 585/2/6 613/2/6
f 613/4/6 602/4/6 614/4/6
f 605/4/6 587/4/6 616/4/6
f 588/4/6 586/4/6 617/4/6
f 617/4/6 586/4/6 618/4/6
f 583/2/6 606/2/6 619/2/6
f 619/2/6 606/2/6 620/2/6
f 610/2/6 611/2/6 621/2/6
f 621/2/6 611/2/6 622/2/6
f 614/4/6 602/4/6 623/4/6
f 623/4/6 602/4/6 624/4/6
f 615/4/6 616/4/6 625/4/6
f 587/3/6 588/3/6 625/3/6
f 616/4/6 587/4/6 625/4/6
f 625/3/6 588/3/6 626/3/6
f 588/4/6 617/4/6 627/4/6
f 627/4/6 617/4/6 628/4/6
f 618/4/6 586/4/6 629/4/6
f 629/4/6 586/4/6 630/4/6
f 624/4/6 602/4/6 631/4/6
f 625/4/6 626/4/6 633/4/6
f 615/4/6 625/4/6 633/4/6
f 633/4/6 626/4/6 634/4/6
f 634/4/6 626/4/6 635/4/6
f 635/4/6 626/4/6 636/4/6
f 626/3/6 588/3/6 637/3/6
f 636/4/6 626/4/6 637/4/6
f 637/3/6 588/3/6 638/3/6
f 588/4/6 627/4/6 639/4/6
f 639/4/6 627/4/6 640/4/6
f 630/4/6 586/4/6 641/4/6
f 641/4/6 586/4/6 642/4/6
f 583/2/6 619/2/6 643/2/6
f 643/2/6 619/2/6 644/2/6
f 634/4/6 635/4/6 646/4/6
f 646/4/6 635/4/6 647/4/6
f 647/4/6 635/4/6 648/4/6
f 636/4/6 637/4/6 649/4/6
f 637/4/6 638/4/6 649/4/6
f 638/3/6 588/3/6 650/3/6
f 649/4/6 638/4/6 650/4/6
f 588/4/6 639/4/6 651/4/6
f 650/3/6 588/3/6 651/3/6
f 651/4/6 639/4/6 652/4/6
f 652/4/6 639/4/6 653/4/6
f 642/4/6 586/4/6 654/4/6
f 654/4/6 586/4/6 655/4/6
f 583/2/6 643/2/6 656/2/6
f 631/4/6 632/4/6 658/4/6
f 646/4/6 647/4/6 660/4/6
f 645/4/6 646/4/6 660/4/6
f 660/4/6 647/4/6 661/4/6
f 661/4/6 647/4/6 662/4/6
f 662/4/6 647/4/6 663/4/6
f 651/4/6 652/4/6 664/4/6
f 650/4/6 651/4/6 664/4/6
f 664/4/6 652/4/6 665/4/6
f 665/4/6 652/4/6 666/4/6
f 666/4/6 652/4/6 667/4/6
f 655/4/6 586/4/6 668/4/6
f 668/4/6 586/4/6 669/4/6
f 586/1/6 583/1/6 670/1/6
f 656/2/6 657/2/6 670/2/6
f 583/2/6 656/2/6 670/2/6
f 670/2/6 657/2/6 671/2/6
f 624/4/6 631/4/6 672/4/6
f 658/4/6 659/4/6 672/4/6
f 631/4/6 658/4/6 672/4/6
f 672/4/6 659/4/6 673/4/6
f 661/4/6 662/4/6 674/4/6
f 674/4/6 662/4/6 675/4/6
f 665/4/6 666/4/6 676/4/6
f 676/4/6 666/4/6 677/4/6
f 677/4/6 666/4/6 678/4/6
f 678/4/6 666/4/6 679/4/6
f 669/4/6 586/4/6 680/4/6
f 680/4/6 586/4/6 681/4/6
f 681/4/6 586/4/6 682/4/6
f 586/1/6 670/1/6 683/1/6
f 682/4/6 586/4/6 683/4/6
f 683/1/6 670/1/6 684/1/6
f 661/4/6 674/4/6 685/4/6
f 685/4/6 674/4/6 686/4/6
f 686/4/6 674/4/6 687/4/6
f 687/4/6 674/4/6 688/4/6
f 677/4/6 678/4/6 689/4/6
f 689/4/6 678/4/6 690/4/6
f 690/4/6 678/4/6 691/4/6
f 691/4/6 678/4/6 692/4/6
f 681/4/6 682/4/6 693/4/6
f 693/4/6 682/4/6 694/4/6
f 673/4/6 659/4/6 695/4/6
f 695/4/6 659/4/6 696/4/6
f 686/4/6 687/4/6 697/4/6
f 697/4/6 687/4/6 698/4/6
f 690/4/6 691/4/6 699/4/6
f 699/4/6 691/4/6 700/4/6
f 696/4/6 659/4/6 701/4/6
f 701/4/6 659/4/6 702/4/6
f 698/4/6 687/4/6 703/4/6
f 703/4/6 687/4/6 704/4/6
