# MagicaVoxel @ Ephtracy

# group
o 

# material
mtllib rounded_road.mtl
usemtl palette

# normals
vn -1 0 0
vn 1 0 0
vn 0 0 1
vn 0 0 -1
vn 0 -1 0
vn 0 1 0

# texcoords
vt 0.306641 0.5
vt 0.986328 0.5
vt 0.990234 0.5
vt 0.994141 0.5

# verts
v -10 0 10
v -10 0 -9.4
v -10 0.1 10
v -10 0.1 -9.4
v -9.9 0 -9.4
v -9.9 0 -9.5
v -9.9 0.1 -9.4
v -9.9 0.1 -9.5
v -9.8 0 -9.5
v -9.8 0 -9.6
v -9.8 0.1 -9.5
v -9.8 0.1 -9.6
v -9.7 0 -9.6
v -9.7 0 -9.7
v -9.7 0.1 -9.6
v -9.7 0.1 -9.7
v -9.6 0 -9.7
v -9.6 0 -9.8
v -9.6 0.1 -9.7
v -9.6 0.1 -9.8
v -9.5 0 -9.8
v -9.5 0 -9.9
v -9.5 0.1 -9.8
v -9.5 0.1 -9.9
v -9.4 0 -9.9
v -9.4 0 -10
v -9.4 0.1 -9.9
v -9.4 0.1 -10
v -2 0 10
v -2 0 -1.5
v -2 0.1 10
v -2 0.1 -1.5
v -1.9 0 -1.5
v -1.9 0 -1.6
v -1.9 0.1 -1.5
v -1.9 0.1 -1.6
v -1.8 0 -1.6
v -1.8 0 -1.7
v -1.8 0.1 -1.6
v -1.8 0.1 -1.7
v -1.7 0 -1.7
v -1.7 0 -1.8
v -1.7 0.1 -1.7
v -1.7 0.1 -1.8
v -1.6 0 -1.8
v -1.6 0 -1.9
v -1.6 0.1 -1.8
v -1.6 0.1 -1.9
v -1.5 0 -1.9
v -1.5 0 -2
v -1.5 0.1 -1.9
v -1.5 0.1 -2
v 10 0 -2
v 10 0 -2.5
v 10 0 -6.9
v 10 0 -7.1
v 10 0 -9.5
v 10 0 -10
v 10 0.1 -2
v 10 0.1 -2.5
v 10 0.1 -6.9
v 10 0.1 -7.1
v 10 0.1 -9.5
v 10 0.1 -10
v -10 0 10
v -10 0.1 10
v -9.5 0 10
v -9.5 0.1 10
v -2.5 0 10
v -2.5 0.1 10
v -2 0 10
v -2 0.1 10
v -2 0 -1.5
v -2 0.1 -1.5
v -1.9 0 -1.5
v -1.9 0.1 -1.5
v -1.9 0 -1.6
v -1.9 0.1 -1.6
v -1.8 0 -1.6
v -1.8 0.1 -1.6
v -1.8 0 -1.7
v -1.8 0.1 -1.7
v -1.7 0 -1.7
v -1.7 0.1 -1.7
v -1.7 0 -1.8
v -1.7 0.1 -1.8
v -1.6 0 -1.8
v -1.6 0.1 -1.8
v -1.6 0 -1.9
v -1.6 0.1 -1.9
v -1.5 0 -1.9
v -1.5 0.1 -1.9
v -1.5 0 -2
v -1.5 0.1 -2
v 10 0 -2
v 10 0.1 -2
v -10 0 -9.4
v -10 0.1 -9.4
v -9.9 0 -9.4
v -9.9 0.1 -9.4
v -9.9 0 -9.5
v -9.9 0.1 -9.5
v -9.8 0 -9.5
v -9.8 0.1 -9.5
v -9.8 0 -9.6
v -9.8 0.1 -9.6
v -9.7 0 -9.6
v -9.7 0.1 -9.6
v -9.7 0 -9.7
v -9.7 0.1 -9.7
v -9.6 0 -9.7
v -9.6 0.1 -9.7
v -9.6 0 -9.8
v -9.6 0.1 -9.8
v -9.5 0 -9.8
v -9.5 0.1 -9.8
v -9.5 0 -9.9
v -9.5 0.1 -9.9
v -9.4 0 -9.9
v -9.4 0.1 -9.9
v -9.4 0 -10
v -9.4 0.1 -10
v 10 0 -10
v 10 0.1 -10
v -10 0 10
v -9.5 0 10
v -2.5 0 10
v -2 0 10
v -9.5 0 9.8
v -2.7 0 9.8
v -6.4 0 9.5
v -5.8 0 9.5
v -6.4 0 6.5
v -5.8 0 6.5
v -6.4 0 5.5
v -5.8 0 5.5
v -6.4 0 2.5
v -5.8 0 2.5
v -6.4 0 1.5
v -5.8 0 1.5
v -6.4 0 -1.5
v -5.8 0 -1.5
v -2 0 -1.5
v -1.9 0 -1.5
v -1.9 0 -1.6
v -1.8 0 -1.6
v -1.8 0 -1.7
v -1.7 0 -1.7
v -2.7 0 -1.8
v -2.5 0 -1.8
v -1.7 0 -1.8
v -1.6 0 -1.8
v -1.6 0 -1.9
v -1.5 0 -1.9
v -2.5 0 -2
v -2.4 0 -2
v -1.5 0 -2
v 10 0 -2
v -2.4 0 -2.1
v -2.3 0 -2.1
v -2.3 0 -2.2
v -2.2 0 -2.2
v -2.2 0 -2.3
v -2.1 0 -2.3
v -2.1 0 -2.4
v -2 0 -2.4
v -2 0 -2.5
v 9.8 0 -2.5
v 10 0 -2.5
v -1.5 0 -5.6
v 1.5 0 -5.6
v 2.5 0 -5.6
v 5.5 0 -5.6
v 6.5 0 -5.6
v 9.5 0 -5.6
v -1.5 0 -6.2
v 1.5 0 -6.2
v 2.5 0 -6.2
v 5.5 0 -6.2
v 6.5 0 -6.2
v 9.5 0 -6.2
v 9.8 0 -6.9
v 10 0 -6.9
v 9.8 0 -7.1
v 10 0 -7.1
v -9.5 0 -9
v -9.4 0 -9
v -9.4 0 -9.1
v -9.3 0 -9.1
v -9.3 0 -9.2
v -9.2 0 -9.2
v -9.2 0 -9.3
v -9.1 0 -9.3
v 9.8 0 -9.3
v -10 0 -9.4
v -9.9 0 -9.4
v -9.1 0 -9.4
v -9 0 -9.4
v -9.9 0 -9.5
v -9.8 0 -9.5
v -9 0 -9.5
v 10 0 -9.5
v -9.8 0 -9.6
v -9.7 0 -9.6
v -9.7 0 -9.7
v -9.6 0 -9.7
v -9.6 0 -9.8
v -9.5 0 -9.8
v -9.5 0 -9.9
v -9.4 0 -9.9
v -9.4 0 -10
v 10 0 -10
v -10 0.1 10
v -9.5 0.1 10
v -2.5 0.1 10
v -2 0.1 10
v -9.5 0.1 9.8
v -2.7 0.1 9.8
v -6.4 0.1 9.5
v -5.8 0.1 9.5
v -6.4 0.1 6.5
v -5.8 0.1 6.5
v -6.4 0.1 5.5
v -5.8 0.1 5.5
v -6.4 0.1 2.5
v -5.8 0.1 2.5
v -6.4 0.1 1.5
v -5.8 0.1 1.5
v -6.4 0.1 -1.5
v -5.8 0.1 -1.5
v -2 0.1 -1.5
v -1.9 0.1 -1.5
v -1.9 0.1 -1.6
v -1.8 0.1 -1.6
v -1.8 0.1 -1.7
v -1.7 0.1 -1.7
v -2.7 0.1 -1.8
v -2.5 0.1 -1.8
v -1.7 0.1 -1.8
v -1.6 0.1 -1.8
v -1.6 0.1 -1.9
v -1.5 0.1 -1.9
v -2.5 0.1 -2
v -2.4 0.1 -2
v -1.5 0.1 -2
v 10 0.1 -2
v -2.4 0.1 -2.1
v -2.3 0.1 -2.1
v -2.3 0.1 -2.2
v -2.2 0.1 -2.2
v -2.2 0.1 -2.3
v -2.1 0.1 -2.3
v -2.1 0.1 -2.4
v -2 0.1 -2.4
v -2 0.1 -2.5
v 9.8 0.1 -2.5
v 10 0.1 -2.5
v -1.5 0.1 -5.6
v 1.5 0.1 -5.6
v 2.5 0.1 -5.6
v 5.5 0.1 -5.6
v 6.5 0.1 -5.6
v 9.5 0.1 -5.6
v -1.5 0.1 -6.2
v 1.5 0.1 -6.2
v 2.5 0.1 -6.2
v 5.5 0.1 -6.2
v 6.5 0.1 -6.2
v 9.5 0.1 -6.2
v 9.8 0.1 -6.9
v 10 0.1 -6.9
v 9.8 0.1 -7.1
v 10 0.1 -7.1
v -9.5 0.1 -9
v -9.4 0.1 -9
v -9.4 0.1 -9.1
v -9.3 0.1 -9.1
v -9.3 0.1 -9.2
v -9.2 0.1 -9.2
v -9.2 0.1 -9.3
v -9.1 0.1 -9.3
v 9.8 0.1 -9.3
v -10 0.1 -9.4
v -9.9 0.1 -9.4
v -9.1 0.1 -9.4
v -9 0.1 -9.4
v -9.9 0.1 -9.5
v -9.8 0.1 -9.5
v -9 0.1 -9.5
v 10 0.1 -9.5
v -9.8 0.1 -9.6
v -9.7 0.1 -9.6
v -9.7 0.1 -9.7
v -9.6 0.1 -9.7
v -9.6 0.1 -9.8
v -9.5 0.1 -9.8
v -9.5 0.1 -9.9
v -9.4 0.1 -9.9
v -9.4 0.1 -10
v 10 0.1 -10

# faces
f 3/2/1 2/2/1 1/2/1
f 4/2/1 2/2/1 3/2/1
f 7/2/1 6/2/1 5/2/1
f 8/2/1 6/2/1 7/2/1
f 11/2/1 10/2/1 9/2/1
f 12/2/1 10/2/1 11/2/1
f 15/2/1 14/2/1 13/2/1
f 16/2/1 14/2/1 15/2/1
f 19/2/1 18/2/1 17/2/1
f 20/2/1 18/2/1 19/2/1
f 23/2/1 22/2/1 21/2/1
f 24/2/1 22/2/1 23/2/1
f 27/2/1 26/2/1 25/2/1
f 28/2/1 26/2/1 27/2/1
f 29/2/2 30/2/2 31/2/2
f 31/2/2 30/2/2 32/2/2
f 33/2/2 34/2/2 35/2/2
f 35/2/2 34/2/2 36/2/2
f 37/2/2 38/2/2 39/2/2
f 39/2/2 38/2/2 40/2/2
f 41/2/2 42/2/2 43/2/2
f 43/2/2 42/2/2 44/2/2
f 45/2/2 46/2/2 47/2/2
f 47/2/2 46/2/2 48/2/2
f 49/2/2 50/2/2 51/2/2
f 51/2/2 50/2/2 52/2/2
f 53/2/2 54/2/2 59/2/2
f 54/1/2 55/1/2 60/1/2
f 59/2/2 54/2/2 60/2/2
f 55/4/2 56/4/2 61/4/2
f 60/1/2 55/1/2 61/1/2
f 56/1/2 57/1/2 62/1/2
f 61/4/2 56/4/2 62/4/2
f 57/2/2 58/2/2 63/2/2
f 62/1/2 57/1/2 63/1/2
f 63/2/2 58/2/2 64/2/2
f 67/2/3 66/2/3 65/2/3
f 68/2/3 66/2/3 67/2/3
f 69/1/3 68/1/3 67/1/3
f 70/1/3 68/1/3 69/1/3
f 71/2/3 70/2/3 69/2/3
f 72/2/3 70/2/3 71/2/3
f 75/2/3 74/2/3 73/2/3
f 76/2/3 74/2/3 75/2/3
f 79/2/3 78/2/3 77/2/3
f 80/2/3 78/2/3 79/2/3
f 83/2/3 82/2/3 81/2/3
f 84/2/3 82/2/3 83/2/3
f 87/2/3 86/2/3 85/2/3
f 88/2/3 86/2/3 87/2/3
f 91/2/3 90/2/3 89/2/3
f 92/2/3 90/2/3 91/2/3
f 95/2/3 94/2/3 93/2/3
f 96/2/3 94/2/3 95/2/3
f 97/2/4 98/2/4 99/2/4
f 99/2/4 98/2/4 100/2/4
f 101/2/4 102/2/4 103/2/4
f 103/2/4 102/2/4 104/2/4
f 105/2/4 106/2/4 107/2/4
f 107/2/4 106/2/4 108/2/4
f 109/2/4 110/2/4 111/2/4
f 111/2/4 110/2/4 112/2/4
f 113/2/4 114/2/4 115/2/4
f 115/2/4 114/2/4 116/2/4
f 117/2/4 118/2/4 119/2/4
f 119/2/4 118/2/4 120/2/4
f 121/2/4 122/2/4 123/2/4
f 123/2/4 122/2/4 124/2/4
f 129/2/5 126/2/5 125/2/5
f 129/1/5 127/1/5 126/1/5
f 130/1/5 127/1/5 129/1/5
f 131/4/5 130/4/5 129/4/5
f 132/4/5 130/4/5 131/4/5
f 133/4/5 131/4/5 129/4/5
f 133/3/5 132/3/5 131/3/5
f 134/4/5 130/4/5 132/4/5
f 134/3/5 132/3/5 133/3/5
f 135/4/5 133/4/5 129/4/5
f 135/4/5 134/4/5 133/4/5
f 136/4/5 130/4/5 134/4/5
f 136/4/5 134/4/5 135/4/5
f 137/4/5 135/4/5 129/4/5
f 137/3/5 136/3/5 135/3/5
f 138/4/5 130/4/5 136/4/5
f 138/3/5 136/3/5 137/3/5
f 139/4/5 137/4/5 129/4/5
f 139/4/5 138/4/5 137/4/5
f 140/4/5 130/4/5 138/4/5
f 140/4/5 138/4/5 139/4/5
f 141/4/5 139/4/5 129/4/5
f 141/3/5 140/3/5 139/3/5
f 142/4/5 130/4/5 140/4/5
f 142/3/5 140/3/5 141/3/5
f 143/2/5 128/2/5 127/2/5
f 145/2/5 144/2/5 143/2/5
f 147/2/5 146/2/5 145/2/5
f 149/4/5 130/4/5 142/4/5
f 149/1/5 127/1/5 130/1/5
f 149/4/5 142/4/5 141/4/5
f 150/2/5 148/2/5 147/2/5
f 150/1/5 127/1/5 149/1/5
f 150/2/5 147/2/5 145/2/5
f 150/2/5 143/2/5 127/2/5
f 150/2/5 145/2/5 143/2/5
f 151/2/5 148/2/5 150/2/5
f 153/2/5 151/2/5 150/2/5
f 153/2/5 152/2/5 151/2/5
f 155/4/5 150/4/5 149/4/5
f 155/2/5 154/2/5 153/2/5
f 155/2/5 153/2/5 150/2/5
f 156/2/5 154/2/5 155/2/5
f 157/2/5 154/2/5 156/2/5
f 159/4/5 156/4/5 155/4/5
f 159/2/5 158/2/5 157/2/5
f 159/2/5 157/2/5 156/2/5
f 160/2/5 158/2/5 159/2/5
f 161/4/5 160/4/5 159/4/5
f 161/2/5 158/2/5 160/2/5
f 162/2/5 158/2/5 161/2/5
f 163/4/5 162/4/5 161/4/5
f 163/2/5 158/2/5 162/2/5
f 164/2/5 158/2/5 163/2/5
f 165/4/5 164/4/5 163/4/5
f 165/2/5 158/2/5 164/2/5
f 166/2/5 158/2/5 165/2/5
f 167/4/5 166/4/5 165/4/5
f 167/2/5 158/2/5 166/2/5
f 168/2/5 158/2/5 167/2/5
f 169/2/5 158/2/5 168/2/5
f 170/4/5 168/4/5 167/4/5
f 171/4/5 168/4/5 170/4/5
f 172/4/5 168/4/5 171/4/5
f 173/4/5 168/4/5 172/4/5
f 174/4/5 168/4/5 173/4/5
f 175/4/5 168/4/5 174/4/5
f 176/4/5 170/4/5 167/4/5
f 176/3/5 171/3/5 170/3/5
f 177/4/5 172/4/5 171/4/5
f 177/3/5 171/3/5 176/3/5
f 178/3/5 173/3/5 172/3/5
f 178/4/5 172/4/5 177/4/5
f 179/4/5 174/4/5 173/4/5
f 179/3/5 173/3/5 178/3/5
f 180/3/5 175/3/5 174/3/5
f 180/4/5 174/4/5 179/4/5
f 181/4/5 168/4/5 175/4/5
f 181/3/5 175/3/5 180/3/5
f 182/1/5 169/1/5 168/1/5
f 182/4/5 168/4/5 181/4/5
f 182/4/5 181/4/5 180/4/5
f 182/4/5 178/4/5 177/4/5
f 182/4/5 177/4/5 176/4/5
f 182/4/5 180/4/5 179/4/5
f 182/4/5 179/4/5 178/4/5
f 183/1/5 169/1/5 182/1/5
f 184/4/5 182/4/5 176/4/5
f 184/4/5 183/4/5 182/4/5
f 185/4/5 183/4/5 184/4/5
f 186/4/5 149/4/5 141/4/5
f 186/2/5 129/2/5 125/2/5
f 186/4/5 141/4/5 129/4/5
f 186/4/5 184/4/5 176/4/5
f 186/4/5 155/4/5 149/4/5
f 186/4/5 176/4/5 167/4/5
f 186/4/5 159/4/5 155/4/5
f 186/4/5 167/4/5 165/4/5
f 186/4/5 165/4/5 163/4/5
f 186/4/5 163/4/5 161/4/5
f 186/4/5 161/4/5 159/4/5
f 187/4/5 184/4/5 186/4/5
f 188/2/5 187/2/5 186/2/5
f 188/4/5 184/4/5 187/4/5
f 189/4/5 184/4/5 188/4/5
f 190/2/5 189/2/5 188/2/5
f 190/4/5 184/4/5 189/4/5
f 191/4/5 184/4/5 190/4/5
f 192/2/5 191/2/5 190/2/5
f 192/4/5 184/4/5 191/4/5
f 193/4/5 184/4/5 192/4/5
f 194/1/5 185/1/5 184/1/5
f 194/4/5 184/4/5 193/4/5
f 195/2/5 193/2/5 192/2/5
f 195/2/5 186/2/5 125/2/5
f 195/2/5 188/2/5 186/2/5
f 195/2/5 192/2/5 190/2/5
f 195/2/5 190/2/5 188/2/5
f 196/2/5 193/2/5 195/2/5
f 197/1/5 194/1/5 193/1/5
f 197/2/5 193/2/5 196/2/5
f 198/1/5 194/1/5 197/1/5
f 199/2/5 197/2/5 196/2/5
f 199/2/5 198/2/5 197/2/5
f 200/2/5 198/2/5 199/2/5
f 201/1/5 194/1/5 198/1/5
f 201/2/5 198/2/5 200/2/5
f 202/1/5 185/1/5 194/1/5
f 202/1/5 194/1/5 201/1/5
f 203/2/5 201/2/5 200/2/5
f 203/2/5 202/2/5 201/2/5
f 204/2/5 202/2/5 203/2/5
f 205/2/5 202/2/5 204/2/5
f 206/2/5 202/2/5 205/2/5
f 207/2/5 202/2/5 206/2/5
f 208/2/5 202/2/5 207/2/5
f 209/2/5 202/2/5 208/2/5
f 210/2/5 202/2/5 209/2/5
f 211/2/5 202/2/5 210/2/5
f 212/2/5 202/2/5 211/2/5
f 213/2/6 214/2/6 217/2/6
f 214/1/6 215/1/6 217/1/6
f 217/1/6 215/1/6 218/1/6
f 217/4/6 218/4/6 219/4/6
f 219/4/6 218/4/6 220/4/6
f 217/4/6 219/4/6 221/4/6
f 219/3/6 220/3/6 221/3/6
f 220/4/6 218/4/6 222/4/6
f 221/3/6 220/3/6 222/3/6
f 217/4/6 221/4/6 223/4/6
f 221/4/6 222/4/6 223/4/6
f 222/4/6 218/4/6 224/4/6
f 223/4/6 222/4/6 224/4/6
f 217/4/6 223/4/6 225/4/6
f 223/3/6 224/3/6 225/3/6
f 224/4/6 218/4/6 226/4/6
f 225/3/6 224/3/6 226/3/6
f 217/4/6 225/4/6 227/4/6
f 225/4/6 226/4/6 227/4/6
f 226/4/6 218/4/6 228/4/6
f 227/4/6 226/4/6 228/4/6
f 217/4/6 227/4/6 229/4/6
f 227/3/6 228/3/6 229/3/6
f 228/4/6 218/4/6 230/4/6
f 229/3/6 228/3/6 230/3/6
f 215/2/6 216/2/6 231/2/6
f 231/2/6 232/2/6 233/2/6
f 233/2/6 234/2/6 235/2/6
f 230/4/6 218/4/6 237/4/6
f 218/1/6 215/1/6 237/1/6
f 229/4/6 230/4/6 237/4/6
f 235/2/6 236/2/6 238/2/6
f 237/1/6 215/1/6 238/1/6
f 233/2/6 235/2/6 238/2/6
f 215/2/6 231/2/6 238/2/6
f 231/2/6 233/2/6 238/2/6
f 238/2/6 236/2/6 239/2/6
f 238/2/6 239/2/6 241/2/6
f 239/2/6 240/2/6 241/2/6
f 237/4/6 238/4/6 243/4/6
f 241/2/6 242/2/6 243/2/6
f 238/2/6 241/2/6 243/2/6
f 243/2/6 242/2/6 244/2/6
f 244/2/6 242/2/6 245/2/6
f 243/4/6 244/4/6 247/4/6
f 245/2/6 246/2/6 247/2/6
f 244/2/6 245/2/6 247/2/6
f 247/2/6 246/2/6 248/2/6
f 247/4/6 248/4/6 249/4/6
f 248/2/6 246/2/6 249/2/6
f 249/2/6 246/2/6 250/2/6
f 249/4/6 250/4/6 251/4/6
f 250/2/6 246/2/6 251/2/6
f 251/2/6 246/2/6 252/2/6
f 251/4/6 252/4/6 253/4/6
f 252/2/6 246/2/6 253/2/6
f 253/2/6 246/2/6 254/2/6
f 253/4/6 254/4/6 255/4/6
f 254/2/6 246/2/6 255/2/6
f 255/2/6 246/2/6 256/2/6
f 256/2/6 246/2/6 257/2/6
f 255/4/6 256/4/6 258/4/6
f 258/4/6 256/4/6 259/4/6
f 259/4/6 256/4/6 260/4/6
f 260/4/6 256/4/6 261/4/6
f 261/4/6 256/4/6 262/4/6
f 262/4/6 256/4/6 263/4/6
f 255/4/6 258/4/6 264/4/6
f 258/3/6 259/3/6 264/3/6
f 259/4/6 260/4/6 265/4/6
f 264/3/6 259/3/6 265/3/6
f 260/3/6 261/3/6 266/3/6
f 265/4/6 260/4/6 266/4/6
f 261/4/6 262/4/6 267/4/6
f 266/3/6 261/3/6 267/3/6
f 262/3/6 263/3/6 268/3/6
f 267/4/6 262/4/6 268/4/6
f 263/4/6 256/4/6 269/4/6
f 268/3/6 263/3/6 269/3/6
f 256/1/6 257/1/6 270/1/6
f 269/4/6 256/4/6 270/4/6
f 268/4/6 269/4/6 270/4/6
f 265/4/6 266/4/6 270/4/6
f 264/4/6 265/4/6 270/4/6
f 267/4/6 268/4/6 270/4/6
f 266/4/6 267/4/6 270/4/6
f 270/1/6 257/1/6 271/1/6
f 264/4/6 270/4/6 272/4/6
f 270/4/6 271/4/6 272/4/6
f 272/4/6 271/4/6 273/4/6
f 229/4/6 237/4/6 274/4/6
f 213/2/6 217/2/6 274/2/6
f 217/4/6 229/4/6 274/4/6
f 264/4/6 272/4/6 274/4/6
f 237/4/6 243/4/6 274/4/6
f 255/4/6 264/4/6 274/4/6
f 243/4/6 247/4/6 274/4/6
f 253/4/6 255/4/6 274/4/6
f 251/4/6 253/4/6 274/4/6
f 249/4/6 251/4/6 274/4/6
f 247/4/6 249/4/6 274/4/6
f 274/4/6 272/4/6 275/4/6
f 274/2/6 275/2/6 276/2/6
f 275/4/6 272/4/6 276/4/6
f 276/4/6 272/4/6 277/4/6
f 276/2/6 277/2/6 278/2/6
f 277/4/6 272/4/6 278/4/6
f 278/4/6 272/4/6 279/4/6
f 278/2/6 279/2/6 280/2/6
f 279/4/6 272/4/6 280/4/6
f 280/4/6 272/4/6 281/4/6
f 272/1/6 273/1/6 282/1/6
f 281/4/6 272/4/6 282/4/6
f 280/2/6 281/2/6 283/2/6
f 213/2/6 274/2/6 283/2/6
f 274/2/6 276/2/6 283/2/6
f 278/2/6 280/2/6 283/2/6
f 276/2/6 278/2/6 283/2/6
f 283/2/6 281/2/6 284/2/6
f 281/1/6 282/1/6 285/1/6
f 284/2/6 281/2/6 285/2/6
f 285/1/6 282/1/6 286/1/6
f 284/2/6 285/2/6 287/2/6
f 285/2/6 286/2/6 287/2/6
f 287/2/6 286/2/6 288/2/6
f 286/1/6 282/1/6 289/1/6
f 288/2/6 286/2/6 289/2/6
f 282/1/6 273/1/6 290/1/6
f 289/1/6 282/1/6 290/1/6
f 288/2/6 289/2/6 291/2/6
f 289/2/6 290/2/6 291/2/6
f 291/2/6 290/2/6 292/2/6
f 292/2/6 290/2/6 293/2/6
f 293/2/6 290/2/6 294/2/6
f 294/2/6 290/2/6 295/2/6
f 295/2/6 290/2/6 296/2/6
f 296/2/6 290/2/6 297/2/6
f 297/2/6 290/2/6 298/2/6
f 298/2/6 290/2/6 299/2/6
f 299/2/6 290/2/6 300/2/6
