# MagicaVoxel @ Ephtracy

# group
o 

# material
mtllib dylo2.mtl
usemtl palette

# normals
vn -1 0 0
vn 1 0 0
vn 0 0 1
vn 0 0 -1
vn 0 -1 0
vn 0 1 0

# texcoords
vt 0.771484 0.5
vt 0.904297 0.5
vt 0.916016 0.5

# verts
v -0.4 0 -1.5
v -0.4 0 -1.6
v -0.4 0.5 -1.5
v -0.4 0.5 -1.6
v -0.3 0 -1.4
v -0.3 0 -1.5
v -0.3 0.5 -1.4
v -0.3 0.5 -1.5
v -0.2 0 -1.3
v -0.2 0 -1.4
v -0.2 0.1 -1.2
v -0.2 0.1 -1.3
v -0.2 0.4 -1.2
v -0.2 0.4 -1.3
v -0.2 0.5 -1.3
v -0.2 0.5 -1.4
v -0.1 0 -1.2
v -0.1 0 -1.3
v -0.1 0.1 2
v -0.1 0.1 -1.2
v -0.1 0.1 -1.3
v -0.1 0.4 2
v -0.1 0.4 -1.2
v -0.1 0.4 -1.3
v -0.1 0.5 -1.2
v -0.1 0.5 -1.3
v 0.2 0 -1.2
v 0.2 0 -1.3
v 0.2 0.1 2
v 0.2 0.1 -1.2
v 0.2 0.1 -1.3
v 0.2 0.4 2
v 0.2 0.4 -1.2
v 0.2 0.4 -1.3
v 0.2 0.5 -1.2
v 0.2 0.5 -1.3
v 0.3 0 -1.3
v 0.3 0 -1.4
v 0.3 0.1 -1.2
v 0.3 0.1 -1.3
v 0.3 0.4 -1.2
v 0.3 0.4 -1.3
v 0.3 0.5 -1.3
v 0.3 0.5 -1.4
v 0.4 0 -1.4
v 0.4 0 -1.5
v 0.4 0.5 -1.4
v 0.4 0.5 -1.5
v 0.5 0 -1.5
v 0.5 0 -1.6
v 0.5 0.5 -1.5
v 0.5 0.5 -1.6
v -0.1 0.1 2
v -0.1 0.4 2
v 7.45058e-009 0.2 2
v 7.45058e-009 0.3 2
v 0.1 0.2 2
v 0.1 0.3 2
v 0.2 0.1 2
v 0.2 0.4 2
v -0.2 0.1 -1.2
v -0.2 0.4 -1.2
v -0.1 0 -1.2
v -0.1 0.1 -1.2
v -0.1 0.4 -1.2
v -0.1 0.5 -1.2
v 0.2 0 -1.2
v 0.2 0.1 -1.2
v 0.2 0.4 -1.2
v 0.2 0.5 -1.2
v 0.3 0.1 -1.2
v 0.3 0.4 -1.2
v -0.2 0 -1.3
v -0.2 0.1 -1.3
v -0.2 0.4 -1.3
v -0.2 0.5 -1.3
v -0.1 0 -1.3
v -0.1 0.1 -1.3
v -0.1 0.4 -1.3
v -0.1 0.5 -1.3
v 0.2 0 -1.3
v 0.2 0.1 -1.3
v 0.2 0.4 -1.3
v 0.2 0.5 -1.3
v 0.3 0 -1.3
v 0.3 0.1 -1.3
v 0.3 0.4 -1.3
v 0.3 0.5 -1.3
v -0.3 0 -1.4
v -0.3 0.5 -1.4
v -0.2 0 -1.4
v -0.2 0.5 -1.4
v 0.3 0 -1.4
v 0.3 0.5 -1.4
v 0.4 0 -1.4
v 0.4 0.5 -1.4
v -0.4 0 -1.5
v -0.4 0.5 -1.5
v -0.3 0 -1.5
v -0.3 0.5 -1.5
v 0.4 0 -1.5
v 0.4 0.5 -1.5
v 0.5 0 -1.5
v 0.5 0.5 -1.5
v -0.4 0 -1.6
v -0.4 0.5 -1.6
v 0.5 0 -1.6
v 0.5 0.5 -1.6
v -0.1 0 -1.2
v 0.2 0 -1.2
v -0.2 0 -1.3
v -0.1 0 -1.3
v 0.2 0 -1.3
v 0.3 0 -1.3
v -0.3 0 -1.4
v -0.2 0 -1.4
v 0.3 0 -1.4
v 0.4 0 -1.4
v -0.4 0 -1.5
v -0.3 0 -1.5
v 0.4 0 -1.5
v 0.5 0 -1.5
v -0.4 0 -1.6
v 0.5 0 -1.6
v -0.1 0.1 2
v 0.2 0.1 2
v -0.2 0.1 -1.2
v -0.1 0.1 -1.2
v 0.2 0.1 -1.2
v 0.3 0.1 -1.2
v -0.2 0.1 -1.3
v -0.1 0.1 -1.3
v 0.2 0.1 -1.3
v 0.3 0.1 -1.3
v -0.1 0.4 2
v 0.2 0.4 2
v -0.2 0.4 -1.2
v -0.1 0.4 -1.2
v 0.2 0.4 -1.2
v 0.3 0.4 -1.2
v -0.2 0.4 -1.3
v -0.1 0.4 -1.3
v 0.2 0.4 -1.3
v 0.3 0.4 -1.3
v -0.1 0.5 -1.2
v 0.2 0.5 -1.2
v -0.2 0.5 -1.3
v -0.1 0.5 -1.3
v 0.2 0.5 -1.3
v 0.3 0.5 -1.3
v -0.3 0.5 -1.4
v -0.2 0.5 -1.4
v 0.3 0.5 -1.4
v 0.4 0.5 -1.4
v -0.4 0.5 -1.5
v -0.3 0.5 -1.5
v 0.4 0.5 -1.5
v 0.5 0.5 -1.5
v -0.4 0.5 -1.6
v 0.5 0.5 -1.6

# faces
f 3/2/1 2/2/1 1/2/1
f 4/2/1 2/2/1 3/2/1
f 7/2/1 6/2/1 5/2/1
f 8/2/1 6/2/1 7/2/1
f 12/2/1 10/2/1 9/2/1
f 13/2/1 12/2/1 11/2/1
f 14/2/1 10/2/1 12/2/1
f 14/2/1 12/2/1 13/2/1
f 15/2/1 10/2/1 14/2/1
f 16/2/1 10/2/1 15/2/1
f 20/2/1 18/2/1 17/2/1
f 21/2/1 18/2/1 20/2/1
f 22/2/1 20/2/1 19/2/1
f 23/2/1 20/2/1 22/2/1
f 25/2/1 24/2/1 23/2/1
f 26/2/1 24/2/1 25/2/1
f 27/2/2 28/2/2 30/2/2
f 30/2/2 28/2/2 31/2/2
f 29/2/2 30/2/2 32/2/2
f 32/2/2 30/2/2 33/2/2
f 33/2/2 34/2/2 35/2/2
f 35/2/2 34/2/2 36/2/2
f 37/2/2 38/2/2 40/2/2
f 39/2/2 40/2/2 41/2/2
f 40/2/2 38/2/2 42/2/2
f 41/2/2 40/2/2 42/2/2
f 42/2/2 38/2/2 43/2/2
f 43/2/2 38/2/2 44/2/2
f 45/2/2 46/2/2 47/2/2
f 47/2/2 46/2/2 48/2/2
f 49/2/2 50/2/2 51/2/2
f 51/2/2 50/2/2 52/2/2
f 55/2/3 54/2/3 53/2/3
f 56/2/3 54/2/3 55/2/3
f 57/2/3 55/2/3 53/2/3
f 57/3/3 56/3/3 55/3/3
f 58/2/3 54/2/3 56/2/3
f 58/3/3 56/3/3 57/3/3
f 59/2/3 57/2/3 53/2/3
f 59/2/3 58/2/3 57/2/3
f 60/2/3 54/2/3 58/2/3
f 60/2/3 58/2/3 59/2/3
f 64/2/3 62/2/3 61/2/3
f 65/2/3 62/2/3 64/2/3
f 67/2/3 64/2/3 63/2/3
f 68/2/3 64/2/3 67/2/3
f 69/2/3 66/2/3 65/2/3
f 70/2/3 66/2/3 69/2/3
f 71/2/3 69/2/3 68/2/3
f 72/2/3 69/2/3 71/2/3
f 77/2/3 74/2/3 73/2/3
f 78/2/3 74/2/3 77/2/3
f 79/2/3 76/2/3 75/2/3
f 80/2/3 76/2/3 79/2/3
f 85/2/3 82/2/3 81/2/3
f 86/2/3 82/2/3 85/2/3
f 87/2/3 84/2/3 83/2/3
f 88/2/3 84/2/3 87/2/3
f 91/2/3 90/2/3 89/2/3
f 92/2/3 90/2/3 91/2/3
f 95/2/3 94/2/3 93/2/3
f 96/2/3 94/2/3 95/2/3
f 99/2/3 98/2/3 97/2/3
f 100/2/3 98/2/3 99/2/3
f 103/2/3 102/2/3 101/2/3
f 104/2/3 102/2/3 103/2/3
f 105/2/4 106/2/4 107/2/4
f 107/2/4 106/2/4 108/2/4
f 112/2/5 110/2/5 109/2/5
f 113/2/5 110/2/5 112/2/5
f 116/2/5 112/2/5 111/2/5
f 116/2/5 114/2/5 113/2/5
f 116/2/5 113/2/5 112/2/5
f 117/2/5 114/2/5 116/2/5
f 120/2/5 116/2/5 115/2/5
f 120/2/5 118/2/5 117/2/5
f 120/2/5 117/2/5 116/2/5
f 121/2/5 118/2/5 120/2/5
f 123/2/5 120/2/5 119/2/5
f 123/2/5 122/2/5 121/2/5
f 123/2/5 121/2/5 120/2/5
f 124/2/5 122/2/5 123/2/5
f 128/2/5 126/2/5 125/2/5
f 129/2/5 126/2/5 128/2/5
f 131/2/5 128/2/5 127/2/5
f 132/2/5 128/2/5 131/2/5
f 133/2/5 130/2/5 129/2/5
f 134/2/5 130/2/5 133/2/5
f 135/2/6 136/2/6 138/2/6
f 138/2/6 136/2/6 139/2/6
f 137/2/6 138/2/6 141/2/6
f 141/2/6 138/2/6 142/2/6
f 139/2/6 140/2/6 143/2/6
f 143/2/6 140/2/6 144/2/6
f 145/2/6 146/2/6 148/2/6
f 148/2/6 146/2/6 149/2/6
f 147/2/6 148/2/6 152/2/6
f 149/2/6 150/2/6 152/2/6
f 148/2/6 149/2/6 152/2/6
f 152/2/6 150/2/6 153/2/6
f 151/2/6 152/2/6 156/2/6
f 153/2/6 154/2/6 156/2/6
f 152/2/6 153/2/6 156/2/6
f 156/2/6 154/2/6 157/2/6
f 155/2/6 156/2/6 159/2/6
f 157/2/6 158/2/6 159/2/6
f 156/2/6 157/2/6 159/2/6
f 159/2/6 158/2/6 160/2/6
