# MagicaVoxel @ Ephtracy

# group
o 

# material
mtllib tree2.mtl
usemtl palette

# normals
vn -1 0 0
vn 1 0 0
vn 0 0 1
vn 0 0 -1
vn 0 -1 0
vn 0 1 0

# texcoords
vt 0.306641 0.5
vt 0.970703 0.5

# verts
v -3 6 2.7
v -3 6 -2.7
v -3 11.4 2.7
v -3 11.4 -2.7
v -2.9 5.9 2.8
v -2.9 5.9 -2.8
v -2.9 6 2.7
v -2.9 6 -2.7
v -2.9 11.4 2.7
v -2.9 11.4 -2.7
v -2.9 11.5 2.8
v -2.9 11.5 -2.8
v -2.8 5.8 2.8
v -2.8 5.8 -2.8
v -2.8 5.9 2.9
v -2.8 5.9 2.8
v -2.8 5.9 -2.8
v -2.8 5.9 -2.9
v -2.8 11.5 2.9
v -2.8 11.5 2.8
v -2.8 11.5 -2.8
v -2.8 11.5 -2.9
v -2.8 11.6 2.8
v -2.8 11.6 -2.8
v -2.7 5.7 2.7
v -2.7 5.7 -2.7
v -2.7 5.8 2.7
v -2.7 5.8 -2.7
v -2.7 6 3
v -2.7 6 2.9
v -2.7 6 -2.9
v -2.7 6 -3
v -2.7 11.4 3
v -2.7 11.4 2.9
v -2.7 11.4 -2.9
v -2.7 11.4 -3
v -2.7 11.6 2.7
v -2.7 11.6 -2.7
v -2.7 11.7 2.7
v -2.7 11.7 -2.7
v -0.5 -0.3 0.4
v -0.5 -0.3 -0.5
v -0.5 5.7 0.4
v -0.5 5.7 -0.5
v -0.4 -0.3 0.5
v -0.4 -0.3 0.4
v -0.4 -0.3 -0.5
v -0.4 -0.3 -0.6
v -0.4 5.7 0.5
v -0.4 5.7 0.4
v -0.4 5.7 -0.5
v -0.4 5.7 -0.6
v 0.4 -0.3 0.5
v 0.4 -0.3 0.4
v 0.4 -0.3 -0.5
v 0.4 -0.3 -0.6
v 0.4 5.7 0.5
v 0.4 5.7 0.4
v 0.4 5.7 -0.5
v 0.4 5.7 -0.6
v 0.5 -0.3 0.4
v 0.5 -0.3 -0.5
v 0.5 5.7 0.4
v 0.5 5.7 -0.5
v 2.7 5.7 2.7
v 2.7 5.7 -2.7
v 2.7 5.8 2.7
v 2.7 5.8 -2.7
v 2.7 6 3
v 2.7 6 2.9
v 2.7 6 -2.9
v 2.7 6 -3
v 2.7 11.4 3
v 2.7 11.4 2.9
v 2.7 11.4 -2.9
v 2.7 11.4 -3
v 2.7 11.6 2.7
v 2.7 11.6 -2.7
v 2.7 11.7 2.7
v 2.7 11.7 -2.7
v 2.8 5.8 2.8
v 2.8 5.8 -2.8
v 2.8 5.9 2.9
v 2.8 5.9 2.8
v 2.8 5.9 -2.8
v 2.8 5.9 -2.9
v 2.8 11.5 2.9
v 2.8 11.5 2.8
v 2.8 11.5 -2.8
v 2.8 11.5 -2.9
v 2.8 11.6 2.8
v 2.8 11.6 -2.8
v 2.9 5.9 2.8
v 2.9 5.9 -2.8
v 2.9 6 2.7
v 2.9 6 -2.7
v 2.9 11.4 2.7
v 2.9 11.4 -2.7
v 2.9 11.5 2.8
v 2.9 11.5 -2.8
v 3 6 2.7
v 3 6 -2.7
v 3 11.4 2.7
v 3 11.4 -2.7
v -2.7 6 3
v -2.7 11.4 3
v 2.7 6 3
v 2.7 11.4 3
v -2.8 5.9 2.9
v -2.8 11.5 2.9
v -2.7 6 2.9
v -2.7 11.4 2.9
v 2.7 6 2.9
v 2.7 11.4 2.9
v 2.8 5.9 2.9
v 2.8 11.5 2.9
v -2.9 5.9 2.8
v -2.9 11.5 2.8
v -2.8 5.8 2.8
v -2.8 5.9 2.8
v -2.8 11.5 2.8
v -2.8 11.6 2.8
v 2.8 5.8 2.8
v 2.8 5.9 2.8
v 2.8 11.5 2.8
v 2.8 11.6 2.8
v 2.9 5.9 2.8
v 2.9 11.5 2.8
v -3 6 2.7
v -3 11.4 2.7
v -2.9 6 2.7
v -2.9 11.4 2.7
v -2.7 5.7 2.7
v -2.7 5.8 2.7
v -2.7 11.6 2.7
v -2.7 11.7 2.7
v 2.7 5.7 2.7
v 2.7 5.8 2.7
v 2.7 11.6 2.7
v 2.7 11.7 2.7
v 2.9 6 2.7
v 2.9 11.4 2.7
v 3 6 2.7
v 3 11.4 2.7
v -0.4 -0.3 0.5
v -0.4 5.7 0.5
v 0.4 -0.3 0.5
v 0.4 5.7 0.5
v -0.5 -0.3 0.4
v -0.5 5.7 0.4
v -0.4 -0.3 0.4
v -0.4 5.7 0.4
v 0.4 -0.3 0.4
v 0.4 5.7 0.4
v 0.5 -0.3 0.4
v 0.5 5.7 0.4
v -0.5 -0.3 -0.5
v -0.5 5.7 -0.5
v -0.4 -0.3 -0.5
v -0.4 5.7 -0.5
v 0.4 -0.3 -0.5
v 0.4 5.7 -0.5
v 0.5 -0.3 -0.5
v 0.5 5.7 -0.5
v -0.4 -0.3 -0.6
v -0.4 5.7 -0.6
v 0.4 -0.3 -0.6
v 0.4 5.7 -0.6
v -3 6 -2.7
v -3 11.4 -2.7
v -2.9 6 -2.7
v -2.9 11.4 -2.7
v -2.7 5.7 -2.7
v -2.7 5.8 -2.7
v -2.7 11.6 -2.7
v -2.7 11.7 -2.7
v 2.7 5.7 -2.7
v 2.7 5.8 -2.7
v 2.7 11.6 -2.7
v 2.7 11.7 -2.7
v 2.9 6 -2.7
v 2.9 11.4 -2.7
v 3 6 -2.7
v 3 11.4 -2.7
v -2.9 5.9 -2.8
v -2.9 11.5 -2.8
v -2.8 5.8 -2.8
v -2.8 5.9 -2.8
v -2.8 11.5 -2.8
v -2.8 11.6 -2.8
v 2.8 5.8 -2.8
v 2.8 5.9 -2.8
v 2.8 11.5 -2.8
v 2.8 11.6 -2.8
v 2.9 5.9 -2.8
v 2.9 11.5 -2.8
v -2.8 5.9 -2.9
v -2.8 11.5 -2.9
v -2.7 6 -2.9
v -2.7 11.4 -2.9
v 2.7 6 -2.9
v 2.7 11.4 -2.9
v 2.8 5.9 -2.9
v 2.8 11.5 -2.9
v -2.7 6 -3
v -2.7 11.4 -3
v 2.7 6 -3
v 2.7 11.4 -3
v -0.4 -0.3 0.5
v 0.4 -0.3 0.5
v -0.5 -0.3 0.4
v -0.4 -0.3 0.4
v 0.4 -0.3 0.4
v 0.5 -0.3 0.4
v -0.5 -0.3 -0.5
v -0.4 -0.3 -0.5
v 0.4 -0.3 -0.5
v 0.5 -0.3 -0.5
v -0.4 -0.3 -0.6
v 0.4 -0.3 -0.6
v -2.7 5.7 2.7
v 2.7 5.7 2.7
v -0.4 5.7 0.5
v 0.4 5.7 0.5
v -0.5 5.7 0.4
v -0.4 5.7 0.4
v 0.4 5.7 0.4
v 0.5 5.7 0.4
v -0.5 5.7 -0.5
v -0.4 5.7 -0.5
v 0.4 5.7 -0.5
v 0.5 5.7 -0.5
v -0.4 5.7 -0.6
v 0.4 5.7 -0.6
v -2.7 5.7 -2.7
v 2.7 5.7 -2.7
v -2.8 5.8 2.8
v 2.8 5.8 2.8
v -2.7 5.8 2.7
v 2.7 5.8 2.7
v -2.7 5.8 -2.7
v 2.7 5.8 -2.7
v -2.8 5.8 -2.8
v 2.8 5.8 -2.8
v -2.8 5.9 2.9
v 2.8 5.9 2.9
v -2.9 5.9 2.8
v -2.8 5.9 2.8
v 2.8 5.9 2.8
v 2.9 5.9 2.8
v -2.9 5.9 -2.8
v -2.8 5.9 -2.8
v 2.8 5.9 -2.8
v 2.9 5.9 -2.8
v -2.8 5.9 -2.9
v 2.8 5.9 -2.9
v -2.7 6 3
v 2.7 6 3
v -2.7 6 2.9
v 2.7 6 2.9
v -3 6 2.7
v -2.9 6 2.7
v 2.9 6 2.7
v 3 6 2.7
v -3 6 -2.7
v -2.9 6 -2.7
v 2.9 6 -2.7
v 3 6 -2.7
v -2.7 6 -2.9
v 2.7 6 -2.9
v -2.7 6 -3
v 2.7 6 -3
v -2.7 11.4 3
v 2.7 11.4 3
v -2.7 11.4 2.9
v 2.7 11.4 2.9
v -3 11.4 2.7
v -2.9 11.4 2.7
v 2.9 11.4 2.7
v 3 11.4 2.7
v -3 11.4 -2.7
v -2.9 11.4 -2.7
v 2.9 11.4 -2.7
v 3 11.4 -2.7
v -2.7 11.4 -2.9
v 2.7 11.4 -2.9
v -2.7 11.4 -3
v 2.7 11.4 -3
v -2.8 11.5 2.9
v 2.8 11.5 2.9
v -2.9 11.5 2.8
v -2.8 11.5 2.8
v 2.8 11.5 2.8
v 2.9 11.5 2.8
v -2.9 11.5 -2.8
v -2.8 11.5 -2.8
v 2.8 11.5 -2.8
v 2.9 11.5 -2.8
v -2.8 11.5 -2.9
v 2.8 11.5 -2.9
v -2.8 11.6 2.8
v 2.8 11.6 2.8
v -2.7 11.6 2.7
v 2.7 11.6 2.7
v -2.7 11.6 -2.7
v 2.7 11.6 -2.7
v -2.8 11.6 -2.8
v 2.8 11.6 -2.8
v -2.7 11.7 2.7
v 2.7 11.7 2.7
v -2.7 11.7 -2.7
v 2.7 11.7 -2.7

# faces
f 3/2/1 2/2/1 1/2/1
f 4/2/1 2/2/1 3/2/1
f 7/2/1 6/2/1 5/2/1
f 8/2/1 6/2/1 7/2/1
f 9/2/1 7/2/1 5/2/1
f 10/2/1 6/2/1 8/2/1
f 11/2/1 9/2/1 5/2/1
f 11/2/1 10/2/1 9/2/1
f 12/2/1 6/2/1 10/2/1
f 12/2/1 10/2/1 11/2/1
f 16/2/1 14/2/1 13/2/1
f 17/2/1 14/2/1 16/2/1
f 19/2/1 16/2/1 15/2/1
f 20/2/1 16/2/1 19/2/1
f 21/2/1 18/2/1 17/2/1
f 22/2/1 18/2/1 21/2/1
f 23/2/1 21/2/1 20/2/1
f 24/2/1 21/2/1 23/2/1
f 27/2/1 26/2/1 25/2/1
f 28/2/1 26/2/1 27/2/1
f 33/2/1 30/2/1 29/2/1
f 34/2/1 30/2/1 33/2/1
f 35/2/1 32/2/1 31/2/1
f 36/2/1 32/2/1 35/2/1
f 39/2/1 38/2/1 37/2/1
f 40/2/1 38/2/1 39/2/1
f 43/1/1 42/1/1 41/1/1
f 44/1/1 42/1/1 43/1/1
f 49/1/1 46/1/1 45/1/1
f 50/1/1 46/1/1 49/1/1
f 51/1/1 48/1/1 47/1/1
f 52/1/1 48/1/1 51/1/1
f 53/1/2 54/1/2 57/1/2
f 57/1/2 54/1/2 58/1/2
f 55/1/2 56/1/2 59/1/2
f 59/1/2 56/1/2 60/1/2
f 61/1/2 62/1/2 63/1/2
f 63/1/2 62/1/2 64/1/2
f 65/2/2 66/2/2 67/2/2
f 67/2/2 66/2/2 68/2/2
f 69/2/2 70/2/2 73/2/2
f 73/2/2 70/2/2 74/2/2
f 71/2/2 72/2/2 75/2/2
f 75/2/2 72/2/2 76/2/2
f 77/2/2 78/2/2 79/2/2
f 79/2/2 78/2/2 80/2/2
f 81/2/2 82/2/2 84/2/2
f 84/2/2 82/2/2 85/2/2
f 83/2/2 84/2/2 87/2/2
f 87/2/2 84/2/2 88/2/2
f 85/2/2 86/2/2 89/2/2
f 89/2/2 86/2/2 90/2/2
f 88/2/2 89/2/2 91/2/2
f 91/2/2 89/2/2 92/2/2
f 93/2/2 94/2/2 95/2/2
f 95/2/2 94/2/2 96/2/2
f 93/2/2 95/2/2 97/2/2
f 96/2/2 94/2/2 98/2/2
f 93/2/2 97/2/2 99/2/2
f 97/2/2 98/2/2 99/2/2
f 98/2/2 94/2/2 100/2/2
f 99/2/2 98/2/2 100/2/2
f 101/2/2 102/2/2 103/2/2
f 103/2/2 102/2/2 104/2/2
f 107/2/3 106/2/3 105/2/3
f 108/2/3 106/2/3 107/2/3
f 111/2/3 110/2/3 109/2/3
f 112/2/3 110/2/3 111/2/3
f 113/2/3 111/2/3 109/2/3
f 114/2/3 110/2/3 112/2/3
f 115/2/3 113/2/3 109/2/3
f 115/2/3 114/2/3 113/2/3
f 116/2/3 110/2/3 114/2/3
f 116/2/3 114/2/3 115/2/3
f 120/2/3 118/2/3 117/2/3
f 121/2/3 118/2/3 120/2/3
f 123/2/3 120/2/3 119/2/3
f 124/2/3 120/2/3 123/2/3
f 125/2/3 122/2/3 121/2/3
f 126/2/3 122/2/3 125/2/3
f 127/2/3 125/2/3 124/2/3
f 128/2/3 125/2/3 127/2/3
f 131/2/3 130/2/3 129/2/3
f 132/2/3 130/2/3 131/2/3
f 137/2/3 134/2/3 133/2/3
f 138/2/3 134/2/3 137/2/3
f 139/2/3 136/2/3 135/2/3
f 140/2/3 136/2/3 139/2/3
f 143/2/3 142/2/3 141/2/3
f 144/2/3 142/2/3 143/2/3
f 147/1/3 146/1/3 145/1/3
f 148/1/3 146/1/3 147/1/3
f 151/1/3 150/1/3 149/1/3
f 152/1/3 150/1/3 151/1/3
f 155/1/3 154/1/3 153/1/3
f 156/1/3 154/1/3 155/1/3
f 157/1/4 158/1/4 159/1/4
f 159/1/4 158/1/4 160/1/4
f 161/1/4 162/1/4 163/1/4
f 163/1/4 162/1/4 164/1/4
f 165/1/4 166/1/4 167/1/4
f 167/1/4 166/1/4 168/1/4
f 169/2/4 170/2/4 171/2/4
f 171/2/4 170/2/4 172/2/4
f 173/2/4 174/2/4 177/2/4
f 177/2/4 174/2/4 178/2/4
f 175/2/4 176/2/4 179/2/4
f 179/2/4 176/2/4 180/2/4
f 181/2/4 182/2/4 183/2/4
f 183/2/4 182/2/4 184/2/4
f 185/2/4 186/2/4 188/2/4
f 188/2/4 186/2/4 189/2/4
f 187/2/4 188/2/4 191/2/4
f 191/2/4 188/2/4 192/2/4
f 189/2/4 190/2/4 193/2/4
f 193/2/4 190/2/4 194/2/4
f 192/2/4 193/2/4 195/2/4
f 195/2/4 193/2/4 196/2/4
f 197/2/4 198/2/4 199/2/4
f 199/2/4 198/2/4 200/2/4
f 197/2/4 199/2/4 201/2/4
f 200/2/4 198/2/4 202/2/4
f 197/2/4 201/2/4 203/2/4
f 201/2/4 202/2/4 203/2/4
f 202/2/4 198/2/4 204/2/4
f 203/2/4 202/2/4 204/2/4
f 205/2/4 206/2/4 207/2/4
f 207/2/4 206/2/4 208/2/4
f 212/1/5 210/1/5 209/1/5
f 213/1/5 210/1/5 212/1/5
f 215/1/5 212/1/5 211/1/5
f 215/1/5 214/1/5 213/1/5
f 215/1/5 213/1/5 212/1/5
f 216/1/5 214/1/5 215/1/5
f 217/1/5 214/1/5 216/1/5
f 218/1/5 214/1/5 217/1/5
f 219/1/5 217/1/5 216/1/5
f 220/1/5 217/1/5 219/1/5
f 223/2/5 222/2/5 221/2/5
f 224/2/5 222/2/5 223/2/5
f 225/2/5 223/2/5 221/2/5
f 226/2/5 223/2/5 225/2/5
f 227/2/5 222/2/5 224/2/5
f 228/2/5 222/2/5 227/2/5
f 229/2/5 225/2/5 221/2/5
f 232/2/5 222/2/5 228/2/5
f 233/2/5 230/2/5 229/2/5
f 234/2/5 232/2/5 231/2/5
f 235/2/5 233/2/5 229/2/5
f 235/2/5 234/2/5 233/2/5
f 235/2/5 229/2/5 221/2/5
f 236/2/5 232/2/5 234/2/5
f 236/2/5 234/2/5 235/2/5
f 236/2/5 222/2/5 232/2/5
f 239/2/5 238/2/5 237/2/5
f 240/2/5 238/2/5 239/2/5
f 241/2/5 239/2/5 237/2/5
f 242/2/5 238/2/5 240/2/5
f 243/2/5 241/2/5 237/2/5
f 243/2/5 242/2/5 241/2/5
f 244/2/5 238/2/5 242/2/5
f 244/2/5 242/2/5 243/2/5
f 248/2/5 246/2/5 245/2/5
f 249/2/5 246/2/5 248/2/5
f 251/2/5 248/2/5 247/2/5
f 252/2/5 248/2/5 251/2/5
f 253/2/5 250/2/5 249/2/5
f 254/2/5 250/2/5 253/2/5
f 255/2/5 253/2/5 252/2/5
f 256/2/5 253/2/5 255/2/5
f 259/2/5 258/2/5 257/2/5
f 260/2/5 258/2/5 259/2/5
f 265/2/5 262/2/5 261/2/5
f 266/2/5 262/2/5 265/2/5
f 267/2/5 264/2/5 263/2/5
f 268/2/5 264/2/5 267/2/5
f 271/2/5 270/2/5 269/2/5
f 272/2/5 270/2/5 271/2/5
f 273/2/6 274/2/6 275/2/6
f 275/2/6 274/2/6 276/2/6
f 277/2/6 278/2/6 281/2/6
f 281/2/6 278/2/6 282/2/6
f 279/2/6 280/2/6 283/2/6
f 283/2/6 280/2/6 284/2/6
f 285/2/6 286/2/6 287/2/6
f 287/2/6 286/2/6 288/2/6
f 289/2/6 290/2/6 292/2/6
f 292/2/6 290/2/6 293/2/6
f 291/2/6 292/2/6 295/2/6
f 295/2/6 292/2/6 296/2/6
f 293/2/6 294/2/6 297/2/6
f 297/2/6 294/2/6 298/2/6
f 296/2/6 297/2/6 299/2/6
f 299/2/6 297/2/6 300/2/6
f 301/2/6 302/2/6 303/2/6
f 303/2/6 302/2/6 304/2/6
f 301/2/6 303/2/6 305/2/6
f 304/2/6 302/2/6 306/2/6
f 301/2/6 305/2/6 307/2/6
f 305/2/6 306/2/6 307/2/6
f 306/2/6 302/2/6 308/2/6
f 307/2/6 306/2/6 308/2/6
f 309/2/6 310/2/6 311/2/6
f 311/2/6 310/2/6 312/2/6
