# MagicaVoxel @ Ephtracy

# group
o 

# material
mtllib tree0.mtl
usemtl palette

# normals
vn -1 0 0
vn 1 0 0
vn 0 0 1
vn 0 0 -1
vn 0 -1 0
vn 0 1 0

# texcoords
vt 0.306641 0.5
vt 0.970703 0.5

# verts
v -2 6.2 1.8
v -2 6.2 -1.8
v -2 9.8 1.8
v -2 9.8 -1.8
v -1.9 6.1 1.9
v -1.9 6.1 -1.9
v -1.9 6.2 1.8
v -1.9 6.2 -1.8
v -1.9 9.8 1.8
v -1.9 9.8 -1.8
v -1.9 9.9 1.9
v -1.9 9.9 -1.9
v -1.8 6 1.8
v -1.8 6 -1.8
v -1.8 6.1 1.8
v -1.8 6.1 -1.8
v -1.8 6.2 2
v -1.8 6.2 1.9
v -1.8 6.2 -1.9
v -1.8 6.2 -2
v -1.8 9.8 2
v -1.8 9.8 1.9
v -1.8 9.8 -1.9
v -1.8 9.8 -2
v -1.8 9.9 1.8
v -1.8 9.9 -1.8
v -1.8 10 1.8
v -1.8 10 -1.8
v -0.4 0 0.3
v -0.4 0 -0.3
v -0.4 6 0.3
v -0.4 6 -0.3
v -0.3 0 0.4
v -0.3 0 0.3
v -0.3 0 -0.3
v -0.3 0 -0.4
v -0.3 6 0.4
v -0.3 6 0.3
v -0.3 6 -0.3
v -0.3 6 -0.4
v 0.3 0 0.4
v 0.3 0 0.3
v 0.3 0 -0.3
v 0.3 0 -0.4
v 0.3 6 0.4
v 0.3 6 0.3
v 0.3 6 -0.3
v 0.3 6 -0.4
v 0.4 0 0.3
v 0.4 0 -0.3
v 0.4 6 0.3
v 0.4 6 -0.3
v 1.8 6 1.8
v 1.8 6 -1.8
v 1.8 6.1 1.8
v 1.8 6.1 -1.8
v 1.8 6.2 2
v 1.8 6.2 1.9
v 1.8 6.2 -1.9
v 1.8 6.2 -2
v 1.8 9.8 2
v 1.8 9.8 1.9
v 1.8 9.8 -1.9
v 1.8 9.8 -2
v 1.8 9.9 1.8
v 1.8 9.9 -1.8
v 1.8 10 1.8
v 1.8 10 -1.8
v 1.9 6.1 1.9
v 1.9 6.1 -1.9
v 1.9 6.2 1.8
v 1.9 6.2 -1.8
v 1.9 9.8 1.8
v 1.9 9.8 -1.8
v 1.9 9.9 1.9
v 1.9 9.9 -1.9
v 2 6.2 1.8
v 2 6.2 -1.8
v 2 9.8 1.8
v 2 9.8 -1.8
v -1.8 6.2 2
v -1.8 9.8 2
v 1.8 6.2 2
v 1.8 9.8 2
v -1.9 6.1 1.9
v -1.9 9.9 1.9
v -1.8 6.2 1.9
v -1.8 9.8 1.9
v 1.8 6.2 1.9
v 1.8 9.8 1.9
v 1.9 6.1 1.9
v 1.9 9.9 1.9
v -2 6.2 1.8
v -2 9.8 1.8
v -1.9 6.2 1.8
v -1.9 9.8 1.8
v -1.8 6 1.8
v -1.8 6.1 1.8
v -1.8 9.9 1.8
v -1.8 10 1.8
v 1.8 6 1.8
v 1.8 6.1 1.8
v 1.8 9.9 1.8
v 1.8 10 1.8
v 1.9 6.2 1.8
v 1.9 9.8 1.8
v 2 6.2 1.8
v 2 9.8 1.8
v -0.3 0 0.4
v -0.3 6 0.4
v 0.3 0 0.4
v 0.3 6 0.4
v -0.4 0 0.3
v -0.4 6 0.3
v -0.3 0 0.3
v -0.3 6 0.3
v 0.3 0 0.3
v 0.3 6 0.3
v 0.4 0 0.3
v 0.4 6 0.3
v -0.4 0 -0.3
v -0.4 6 -0.3
v -0.3 0 -0.3
v -0.3 6 -0.3
v 0.3 0 -0.3
v 0.3 6 -0.3
v 0.4 0 -0.3
v 0.4 6 -0.3
v -0.3 0 -0.4
v -0.3 6 -0.4
v 0.3 0 -0.4
v 0.3 6 -0.4
v -2 6.2 -1.8
v -2 9.8 -1.8
v -1.9 6.2 -1.8
v -1.9 9.8 -1.8
v -1.8 6 -1.8
v -1.8 6.1 -1.8
v -1.8 9.9 -1.8
v -1.8 10 -1.8
v 1.8 6 -1.8
v 1.8 6.1 -1.8
v 1.8 9.9 -1.8
v 1.8 10 -1.8
v 1.9 6.2 -1.8
v 1.9 9.8 -1.8
v 2 6.2 -1.8
v 2 9.8 -1.8
v -1.9 6.1 -1.9
v -1.9 9.9 -1.9
v -1.8 6.2 -1.9
v -1.8 9.8 -1.9
v 1.8 6.2 -1.9
v 1.8 9.8 -1.9
v 1.9 6.1 -1.9
v 1.9 9.9 -1.9
v -1.8 6.2 -2
v -1.8 9.8 -2
v 1.8 6.2 -2
v 1.8 9.8 -2
v -0.3 0 0.4
v 0.3 0 0.4
v -0.4 0 0.3
v -0.3 0 0.3
v 0.3 0 0.3
v 0.4 0 0.3
v -0.4 0 -0.3
v -0.3 0 -0.3
v 0.3 0 -0.3
v 0.4 0 -0.3
v -0.3 0 -0.4
v 0.3 0 -0.4
v -1.8 6 1.8
v 1.8 6 1.8
v -0.3 6 0.4
v 0.3 6 0.4
v -0.4 6 0.3
v -0.3 6 0.3
v 0.3 6 0.3
v 0.4 6 0.3
v -0.4 6 -0.3
v -0.3 6 -0.3
v 0.3 6 -0.3
v 0.4 6 -0.3
v -0.3 6 -0.4
v 0.3 6 -0.4
v -1.8 6 -1.8
v 1.8 6 -1.8
v -1.9 6.1 1.9
v 1.9 6.1 1.9
v -1.8 6.1 1.8
v 1.8 6.1 1.8
v -1.8 6.1 -1.8
v 1.8 6.1 -1.8
v -1.9 6.1 -1.9
v 1.9 6.1 -1.9
v -1.8 6.2 2
v 1.8 6.2 2
v -1.8 6.2 1.9
v 1.8 6.2 1.9
v -2 6.2 1.8
v -1.9 6.2 1.8
v 1.9 6.2 1.8
v 2 6.2 1.8
v -2 6.2 -1.8
v -1.9 6.2 -1.8
v 1.9 6.2 -1.8
v 2 6.2 -1.8
v -1.8 6.2 -1.9
v 1.8 6.2 -1.9
v -1.8 6.2 -2
v 1.8 6.2 -2
v -1.8 9.8 2
v 1.8 9.8 2
v -1.8 9.8 1.9
v 1.8 9.8 1.9
v -2 9.8 1.8
v -1.9 9.8 1.8
v 1.9 9.8 1.8
v 2 9.8 1.8
v -2 9.8 -1.8
v -1.9 9.8 -1.8
v 1.9 9.8 -1.8
v 2 9.8 -1.8
v -1.8 9.8 -1.9
v 1.8 9.8 -1.9
v -1.8 9.8 -2
v 1.8 9.8 -2
v -1.9 9.9 1.9
v 1.9 9.9 1.9
v -1.8 9.9 1.8
v 1.8 9.9 1.8
v -1.8 9.9 -1.8
v 1.8 9.9 -1.8
v -1.9 9.9 -1.9
v 1.9 9.9 -1.9
v -1.8 10 1.8
v 1.8 10 1.8
v -1.8 10 -1.8
v 1.8 10 -1.8

# faces
f 3/2/1 2/2/1 1/2/1
f 4/2/1 2/2/1 3/2/1
f 7/2/1 6/2/1 5/2/1
f 8/2/1 6/2/1 7/2/1
f 9/2/1 7/2/1 5/2/1
f 10/2/1 6/2/1 8/2/1
f 11/2/1 9/2/1 5/2/1
f 11/2/1 10/2/1 9/2/1
f 12/2/1 6/2/1 10/2/1
f 12/2/1 10/2/1 11/2/1
f 15/2/1 14/2/1 13/2/1
f 16/2/1 14/2/1 15/2/1
f 21/2/1 18/2/1 17/2/1
f 22/2/1 18/2/1 21/2/1
f 23/2/1 20/2/1 19/2/1
f 24/2/1 20/2/1 23/2/1
f 27/2/1 26/2/1 25/2/1
f 28/2/1 26/2/1 27/2/1
f 31/1/1 30/1/1 29/1/1
f 32/1/1 30/1/1 31/1/1
f 37/1/1 34/1/1 33/1/1
f 38/1/1 34/1/1 37/1/1
f 39/1/1 36/1/1 35/1/1
f 40/1/1 36/1/1 39/1/1
f 41/1/2 42/1/2 45/1/2
f 45/1/2 42/1/2 46/1/2
f 43/1/2 44/1/2 47/1/2
f 47/1/2 44/1/2 48/1/2
f 49/1/2 50/1/2 51/1/2
f 51/1/2 50/1/2 52/1/2
f 53/2/2 54/2/2 55/2/2
f 55/2/2 54/2/2 56/2/2
f 57/2/2 58/2/2 61/2/2
f 61/2/2 58/2/2 62/2/2
f 59/2/2 60/2/2 63/2/2
f 63/2/2 60/2/2 64/2/2
f 65/2/2 66/2/2 67/2/2
f 67/2/2 66/2/2 68/2/2
f 69/2/2 70/2/2 71/2/2
f 71/2/2 70/2/2 72/2/2
f 69/2/2 71/2/2 73/2/2
f 72/2/2 70/2/2 74/2/2
f 69/2/2 73/2/2 75/2/2
f 73/2/2 74/2/2 75/2/2
f 74/2/2 70/2/2 76/2/2
f 75/2/2 74/2/2 76/2/2
f 77/2/2 78/2/2 79/2/2
f 79/2/2 78/2/2 80/2/2
f 83/2/3 82/2/3 81/2/3
f 84/2/3 82/2/3 83/2/3
f 87/2/3 86/2/3 85/2/3
f 88/2/3 86/2/3 87/2/3
f 89/2/3 87/2/3 85/2/3
f 90/2/3 86/2/3 88/2/3
f 91/2/3 89/2/3 85/2/3
f 91/2/3 90/2/3 89/2/3
f 92/2/3 86/2/3 90/2/3
f 92/2/3 90/2/3 91/2/3
f 95/2/3 94/2/3 93/2/3
f 96/2/3 94/2/3 95/2/3
f 101/2/3 98/2/3 97/2/3
f 102/2/3 98/2/3 101/2/3
f 103/2/3 100/2/3 99/2/3
f 104/2/3 100/2/3 103/2/3
f 107/2/3 106/2/3 105/2/3
f 108/2/3 106/2/3 107/2/3
f 111/1/3 110/1/3 109/1/3
f 112/1/3 110/1/3 111/1/3
f 115/1/3 114/1/3 113/1/3
f 116/1/3 114/1/3 115/1/3
f 119/1/3 118/1/3 117/1/3
f 120/1/3 118/1/3 119/1/3
f 121/1/4 122/1/4 123/1/4
f 123/1/4 122/1/4 124/1/4
f 125/1/4 126/1/4 127/1/4
f 127/1/4 126/1/4 128/1/4
f 129/1/4 130/1/4 131/1/4
f 131/1/4 130/1/4 132/1/4
f 133/2/4 134/2/4 135/2/4
f 135/2/4 134/2/4 136/2/4
f 137/2/4 138/2/4 141/2/4
f 141/2/4 138/2/4 142/2/4
f 139/2/4 140/2/4 143/2/4
f 143/2/4 140/2/4 144/2/4
f 145/2/4 146/2/4 147/2/4
f 147/2/4 146/2/4 148/2/4
f 149/2/4 150/2/4 151/2/4
f 151/2/4 150/2/4 152/2/4
f 149/2/4 151/2/4 153/2/4
f 152/2/4 150/2/4 154/2/4
f 149/2/4 153/2/4 155/2/4
f 153/2/4 154/2/4 155/2/4
f 154/2/4 150/2/4 156/2/4
f 155/2/4 154/2/4 156/2/4
f 157/2/4 158/2/4 159/2/4
f 159/2/4 158/2/4 160/2/4
f 164/1/5 162/1/5 161/1/5
f 165/1/5 162/1/5 164/1/5
f 167/1/5 164/1/5 163/1/5
f 167/1/5 166/1/5 165/1/5
f 167/1/5 165/1/5 164/1/5
f 168/1/5 166/1/5 167/1/5
f 169/1/5 166/1/5 168/1/5
f 170/1/5 166/1/5 169/1/5
f 171/1/5 169/1/5 168/1/5
f 172/1/5 169/1/5 171/1/5
f 175/2/5 174/2/5 173/2/5
f 176/2/5 174/2/5 175/2/5
f 177/2/5 175/2/5 173/2/5
f 178/2/5 175/2/5 177/2/5
f 179/2/5 174/2/5 176/2/5
f 180/2/5 174/2/5 179/2/5
f 181/2/5 177/2/5 173/2/5
f 184/2/5 174/2/5 180/2/5
f 185/2/5 182/2/5 181/2/5
f 186/2/5 184/2/5 183/2/5
f 187/2/5 185/2/5 181/2/5
f 187/2/5 186/2/5 185/2/5
f 187/2/5 181/2/5 173/2/5
f 188/2/5 184/2/5 186/2/5
f 188/2/5 186/2/5 187/2/5
f 188/2/5 174/2/5 184/2/5
f 191/2/5 190/2/5 189/2/5
f 192/2/5 190/2/5 191/2/5
f 193/2/5 191/2/5 189/2/5
f 194/2/5 190/2/5 192/2/5
f 195/2/5 193/2/5 189/2/5
f 195/2/5 194/2/5 193/2/5
f 196/2/5 190/2/5 194/2/5
f 196/2/5 194/2/5 195/2/5
f 199/2/5 198/2/5 197/2/5
f 200/2/5 198/2/5 199/2/5
f 205/2/5 202/2/5 201/2/5
f 206/2/5 202/2/5 205/2/5
f 207/2/5 204/2/5 203/2/5
f 208/2/5 204/2/5 207/2/5
f 211/2/5 210/2/5 209/2/5
f 212/2/5 210/2/5 211/2/5
f 213/2/6 214/2/6 215/2/6
f 215/2/6 214/2/6 216/2/6
f 217/2/6 218/2/6 221/2/6
f 221/2/6 218/2/6 222/2/6
f 219/2/6 220/2/6 223/2/6
f 223/2/6 220/2/6 224/2/6
f 225/2/6 226/2/6 227/2/6
f 227/2/6 226/2/6 228/2/6
f 229/2/6 230/2/6 231/2/6
f 231/2/6 230/2/6 232/2/6
f 229/2/6 231/2/6 233/2/6
f 232/2/6 230/2/6 234/2/6
f 229/2/6 233/2/6 235/2/6
f 233/2/6 234/2/6 235/2/6
f 234/2/6 230/2/6 236/2/6
f 235/2/6 234/2/6 236/2/6
f 237/2/6 238/2/6 239/2/6
f 239/2/6 238/2/6 240/2/6
