# MagicaVoxel @ Ephtracy

# group
o 

# material
mtllib wall.mtl
usemtl palette

# normals
vn -1 0 0
vn 1 0 0
vn 0 0 1
vn 0 0 -1
vn 0 -1 0
vn 0 1 0

# texcoords
vt 0.306641 0.5
vt 0.970703 0.5

# verts
v -1.5 0 1.5
v -1.5 0 0.7
v -1.5 0 0.5
v -1.5 0 -1.5
v -1.5 0.8 1.5
v -1.5 0.8 0.7
v -1.5 0.8 0.5
v -1.5 0.8 -1.5
v -1.5 1 1.5
v -1.5 1 -0.6
v -1.5 1 -0.8
v -1.5 1 -1.5
v -1.5 1.9 1.5
v -1.5 1.9 -0.6
v -1.5 1.9 -0.8
v -1.5 1.9 -1.5
v -1.5 2.1 1.5
v -1.5 2.1 0.7
v -1.5 2.1 0.5
v -1.5 2.1 -1.5
v -1.5 3 1.5
v -1.5 3 0.7
v -1.5 3 0.5
v -1.5 3 -1.5
v -1.4 0.1 0.7
v -1.4 0.1 0.5
v -1.4 0.8 1.4
v -1.4 0.8 0.7
v -1.4 0.8 0.5
v -1.4 0.8 -1.4
v -1.4 1 1.4
v -1.4 1 -0.6
v -1.4 1 -0.8
v -1.4 1 -1.4
v -1.4 1.9 1.4
v -1.4 1.9 -0.6
v -1.4 1.9 -0.8
v -1.4 1.9 -1.4
v -1.4 2.1 1.4
v -1.4 2.1 0.7
v -1.4 2.1 0.5
v -1.4 2.1 -1.4
v -1.4 2.9 0.7
v -1.4 2.9 0.5
v -0.5 0 0.5
v -0.5 0 -0.6
v -0.5 0 -0.8
v -0.5 0 -1.5
v -0.5 0.1 0.5
v -0.5 0.1 -0.6
v -0.5 0.1 -0.8
v -0.5 0.1 -1.4
v -0.5 0.8 -1.4
v -0.5 0.8 -1.5
v -0.5 1 1.5
v -0.5 1 1.4
v -0.5 1.9 1.5
v -0.5 1.9 1.4
v -0.5 2.1 -1.4
v -0.5 2.1 -1.5
v -0.5 2.9 0.5
v -0.5 2.9 -0.6
v -0.5 2.9 -0.8
v -0.5 2.9 -1.4
v -0.5 3 0.5
v -0.5 3 -0.6
v -0.5 3 -0.8
v -0.5 3 -1.5
v 0.8 0 1.5
v 0.8 0 -0.6
v 0.8 0.1 1.4
v 0.8 0.1 -0.6
v 0.8 0.8 1.5
v 0.8 0.8 1.4
v 0.8 1 -1.4
v 0.8 1 -1.5
v 0.8 1.9 -1.4
v 0.8 1.9 -1.5
v 0.8 2.1 1.5
v 0.8 2.1 1.4
v 0.8 2.9 1.4
v 0.8 2.9 -0.6
v 0.8 3 1.5
v 0.8 3 -0.6
v -0.7 0 0.5
v -0.7 0 -1.5
v -0.7 0.1 0.5
v -0.7 0.1 -1.4
v -0.7 0.8 -1.4
v -0.7 0.8 -1.5
v -0.7 1 1.5
v -0.7 1 1.4
v -0.7 1.9 1.5
v -0.7 1.9 1.4
v -0.7 2.1 -1.4
v -0.7 2.1 -1.5
v -0.7 2.9 0.5
v -0.7 2.9 -1.4
v -0.7 3 0.5
v -0.7 3 -1.5
v 0.6 0 1.5
v 0.6 0 0.7
v 0.6 0 0.5
v 0.6 0 -0.6
v 0.6 0.1 1.4
v 0.6 0.1 0.7
v 0.6 0.1 0.5
v 0.6 0.1 -0.6
v 0.6 0.8 1.5
v 0.6 0.8 1.4
v 0.6 1 -1.4
v 0.6 1 -1.5
v 0.6 1.9 -1.4
v 0.6 1.9 -1.5
v 0.6 2.1 1.5
v 0.6 2.1 1.4
v 0.6 2.9 1.4
v 0.6 2.9 0.7
v 0.6 2.9 0.5
v 0.6 2.9 -0.6
v 0.6 3 1.5
v 0.6 3 0.7
v 0.6 3 0.5
v 0.6 3 -0.6
v 1.4 0.1 -0.6
v 1.4 0.1 -0.8
v 1.4 0.8 1.4
v 1.4 0.8 -0.6
v 1.4 0.8 -0.8
v 1.4 0.8 -1.4
v 1.4 1 1.4
v 1.4 1 0.7
v 1.4 1 0.5
v 1.4 1 -1.4
v 1.4 1.9 1.4
v 1.4 1.9 0.7
v 1.4 1.9 0.5
v 1.4 1.9 -1.4
v 1.4 2.1 1.4
v 1.4 2.1 -0.6
v 1.4 2.1 -0.8
v 1.4 2.1 -1.4
v 1.4 2.9 -0.6
v 1.4 2.9 -0.8
v 1.5 0 1.5
v 1.5 0 -0.6
v 1.5 0 -0.8
v 1.5 0 -1.5
v 1.5 0.8 1.5
v 1.5 0.8 -0.6
v 1.5 0.8 -0.8
v 1.5 0.8 -1.5
v 1.5 1 1.5
v 1.5 1 0.7
v 1.5 1 0.5
v 1.5 1 -1.5
v 1.5 1.9 1.5
v 1.5 1.9 0.7
v 1.5 1.9 0.5
v 1.5 1.9 -1.5
v 1.5 2.1 1.5
v 1.5 2.1 -0.6
v 1.5 2.1 -0.8
v 1.5 2.1 -1.5
v 1.5 3 1.5
v 1.5 3 -0.6
v 1.5 3 -0.8
v 1.5 3 -1.5
v -1.5 0 1.5
v -1.5 0.8 1.5
v -1.5 1 1.5
v -1.5 1.9 1.5
v -1.5 2.1 1.5
v -1.5 3 1.5
v -0.7 1 1.5
v -0.7 1.9 1.5
v -0.5 1 1.5
v -0.5 1.9 1.5
v 0.6 0 1.5
v 0.6 0.8 1.5
v 0.6 2.1 1.5
v 0.6 3 1.5
v 0.8 0 1.5
v 0.8 0.8 1.5
v 0.8 2.1 1.5
v 0.8 3 1.5
v 1.5 0 1.5
v 1.5 0.8 1.5
v 1.5 1 1.5
v 1.5 1.9 1.5
v 1.5 2.1 1.5
v 1.5 3 1.5
v -1.4 0.8 1.4
v -1.4 1 1.4
v -1.4 1.9 1.4
v -1.4 2.1 1.4
v -0.7 1 1.4
v -0.7 1.9 1.4
v -0.5 1 1.4
v -0.5 1.9 1.4
v 0.6 0.1 1.4
v 0.6 0.8 1.4
v 0.6 2.1 1.4
v 0.6 2.9 1.4
v 0.8 0.1 1.4
v 0.8 0.8 1.4
v 0.8 2.1 1.4
v 0.8 2.9 1.4
v 1.4 0.8 1.4
v 1.4 1 1.4
v 1.4 1.9 1.4
v 1.4 2.1 1.4
v -1.5 0 0.5
v -1.5 0.8 0.5
v -1.5 2.1 0.5
v -1.5 3 0.5
v -1.4 0.1 0.5
v -1.4 0.8 0.5
v -1.4 2.1 0.5
v -1.4 2.9 0.5
v -0.7 0 0.5
v -0.7 0.1 0.5
v -0.7 2.9 0.5
v -0.7 3 0.5
v -0.5 0 0.5
v -0.5 0.1 0.5
v -0.5 2.9 0.5
v -0.5 3 0.5
v 0.6 0 0.5
v 0.6 0.1 0.5
v 0.6 2.9 0.5
v 0.6 3 0.5
v 1.4 1 0.5
v 1.4 1.9 0.5
v 1.5 1 0.5
v 1.5 1.9 0.5
v -1.5 1 -0.8
v -1.5 1.9 -0.8
v -1.4 1 -0.8
v -1.4 1.9 -0.8
v -0.5 0 -0.8
v -0.5 0.1 -0.8
v -0.5 2.9 -0.8
v -0.5 3 -0.8
v 1.4 0.1 -0.8
v 1.4 0.8 -0.8
v 1.4 2.1 -0.8
v 1.4 2.9 -0.8
v 1.5 0 -0.8
v 1.5 0.8 -0.8
v 1.5 2.1 -0.8
v 1.5 3 -0.8
v -1.5 0 0.7
v -1.5 0.8 0.7
v -1.5 2.1 0.7
v -1.5 3 0.7
v -1.4 0.1 0.7
v -1.4 0.8 0.7
v -1.4 2.1 0.7
v -1.4 2.9 0.7
v 0.6 0 0.7
v 0.6 0.1 0.7
v 0.6 2.9 0.7
v 0.6 3 0.7
v 1.4 1 0.7
v 1.4 1.9 0.7
v 1.5 1 0.7
v 1.5 1.9 0.7
v -1.5 1 -0.6
v -1.5 1.9 -0.6
v -1.4 1 -0.6
v -1.4 1.9 -0.6
v -0.5 0 -0.6
v -0.5 0.1 -0.6
v -0.5 2.9 -0.6
v -0.5 3 -0.6
v 0.6 0 -0.6
v 0.6 0.1 -0.6
v 0.6 2.9 -0.6
v 0.6 3 -0.6
v 0.8 0 -0.6
v 0.8 0.1 -0.6
v 0.8 2.9 -0.6
v 0.8 3 -0.6
v 1.4 0.1 -0.6
v 1.4 0.8 -0.6
v 1.4 2.1 -0.6
v 1.4 2.9 -0.6
v 1.5 0 -0.6
v 1.5 0.8 -0.6
v 1.5 2.1 -0.6
v 1.5 3 -0.6
v -1.4 0.8 -1.4
v -1.4 1 -1.4
v -1.4 1.9 -1.4
v -1.4 2.1 -1.4
v -0.7 0.1 -1.4
v -0.7 0.8 -1.4
v -0.7 2.1 -1.4
v -0.7 2.9 -1.4
v -0.5 0.1 -1.4
v -0.5 0.8 -1.4
v -0.5 2.1 -1.4
v -0.5 2.9 -1.4
v 0.6 1 -1.4
v 0.6 1.9 -1.4
v 0.8 1 -1.4
v 0.8 1.9 -1.4
v 1.4 0.8 -1.4
v 1.4 1 -1.4
v 1.4 1.9 -1.4
v 1.4 2.1 -1.4
v -1.5 0 -1.5
v -1.5 0.8 -1.5
v -1.5 1 -1.5
v -1.5 1.9 -1.5
v -1.5 2.1 -1.5
v -1.5 3 -1.5
v -0.7 0 -1.5
v -0.7 0.8 -1.5
v -0.7 2.1 -1.5
v -0.7 3 -1.5
v -0.5 0 -1.5
v -0.5 0.8 -1.5
v -0.5 2.1 -1.5
v -0.5 3 -1.5
v 0.6 1 -1.5
v 0.6 1.9 -1.5
v 0.8 1 -1.5
v 0.8 1.9 -1.5
v 1.5 0 -1.5
v 1.5 0.8 -1.5
v 1.5 1 -1.5
v 1.5 1.9 -1.5
v 1.5 2.1 -1.5
v 1.5 3 -1.5
v -1.5 0 1.5
v 0.6 0 1.5
v 0.8 0 1.5
v 1.5 0 1.5
v -1.5 0 0.7
v 0.6 0 0.7
v -1.5 0 0.5
v -0.7 0 0.5
v -0.5 0 0.5
v 0.6 0 0.5
v -0.5 0 -0.6
v 0.6 0 -0.6
v 0.8 0 -0.6
v 1.5 0 -0.6
v -0.5 0 -0.8
v 1.5 0 -0.8
v -1.5 0 -1.5
v -0.7 0 -1.5
v -0.5 0 -1.5
v 1.5 0 -1.5
v 0.6 0.1 1.4
v 0.8 0.1 1.4
v -1.4 0.1 0.7
v 0.6 0.1 0.7
v -1.4 0.1 0.5
v -0.7 0.1 0.5
v -0.5 0.1 0.5
v 0.6 0.1 0.5
v -0.5 0.1 -0.6
v 0.6 0.1 -0.6
v 0.8 0.1 -0.6
v 1.4 0.1 -0.6
v -0.5 0.1 -0.8
v 1.4 0.1 -0.8
v -0.7 0.1 -1.4
v -0.5 0.1 -1.4
v -1.5 1 1.5
v -0.7 1 1.5
v -0.5 1 1.5
v 1.5 1 1.5
v -1.4 1 1.4
v -0.7 1 1.4
v -0.5 1 1.4
v 1.4 1 1.4
v 1.4 1 0.7
v 1.5 1 0.7
v 1.4 1 0.5
v 1.5 1 0.5
v -1.5 1 -0.6
v -1.4 1 -0.6
v -1.5 1 -0.8
v -1.4 1 -0.8
v -1.4 1 -1.4
v 0.6 1 -1.4
v 0.8 1 -1.4
v 1.4 1 -1.4
v -1.5 1 -1.5
v 0.6 1 -1.5
v 0.8 1 -1.5
v 1.5 1 -1.5
v -1.5 2.1 1.5
v 0.6 2.1 1.5
v 0.8 2.1 1.5
v 1.5 2.1 1.5
v -1.4 2.1 1.4
v 0.6 2.1 1.4
v 0.8 2.1 1.4
v 1.4 2.1 1.4
v -1.5 2.1 0.7
v -1.4 2.1 0.7
v -1.5 2.1 0.5
v -1.4 2.1 0.5
v 1.4 2.1 -0.6
v 1.5 2.1 -0.6
v 1.4 2.1 -0.8
v 1.5 2.1 -0.8
v -1.4 2.1 -1.4
v -0.7 2.1 -1.4
v -0.5 2.1 -1.4
v 1.4 2.1 -1.4
v -1.5 2.1 -1.5
v -0.7 2.1 -1.5
v -0.5 2.1 -1.5
v 1.5 2.1 -1.5
v -1.5 0.8 1.5
v 0.6 0.8 1.5
v 0.8 0.8 1.5
v 1.5 0.8 1.5
v -1.4 0.8 1.4
v 0.6 0.8 1.4
v 0.8 0.8 1.4
v 1.4 0.8 1.4
v -1.5 0.8 0.7
v -1.4 0.8 0.7
v -1.5 0.8 0.5
v -1.4 0.8 0.5
v 1.4 0.8 -0.6
v 1.5 0.8 -0.6
v 1.4 0.8 -0.8
v 1.5 0.8 -0.8
v -1.4 0.8 -1.4
v -0.7 0.8 -1.4
v -0.5 0.8 -1.4
v 1.4 0.8 -1.4
v -1.5 0.8 -1.5
v -0.7 0.8 -1.5
v -0.5 0.8 -1.5
v 1.5 0.8 -1.5
v -1.5 1.9 1.5
v -0.7 1.9 1.5
v -0.5 1.9 1.5
v 1.5 1.9 1.5
v -1.4 1.9 1.4
v -0.7 1.9 1.4
v -0.5 1.9 1.4
v 1.4 1.9 1.4
v 1.4 1.9 0.7
v 1.5 1.9 0.7
v 1.4 1.9 0.5
v 1.5 1.9 0.5
v -1.5 1.9 -0.6
v -1.4 1.9 -0.6
v -1.5 1.9 -0.8
v -1.4 1.9 -0.8
v -1.4 1.9 -1.4
v 0.6 1.9 -1.4
v 0.8 1.9 -1.4
v 1.4 1.9 -1.4
v -1.5 1.9 -1.5
v 0.6 1.9 -1.5
v 0.8 1.9 -1.5
v 1.5 1.9 -1.5
v 0.6 2.9 1.4
v 0.8 2.9 1.4
v -1.4 2.9 0.7
v 0.6 2.9 0.7
v -1.4 2.9 0.5
v -0.7 2.9 0.5
v -0.5 2.9 0.5
v 0.6 2.9 0.5
v -0.5 2.9 -0.6
v 0.6 2.9 -0.6
v 0.8 2.9 -0.6
v 1.4 2.9 -0.6
v -0.5 2.9 -0.8
v 1.4 2.9 -0.8
v -0.7 2.9 -1.4
v -0.5 2.9 -1.4
v -1.5 3 1.5
v 0.6 3 1.5
v 0.8 3 1.5
v 1.5 3 1.5
v -1.5 3 0.7
v 0.6 3 0.7
v -1.5 3 0.5
v -0.7 3 0.5
v -0.5 3 0.5
v 0.6 3 0.5
v -0.5 3 -0.6
v 0.6 3 -0.6
v 0.8 3 -0.6
v 1.5 3 -0.6
v -0.5 3 -0.8
v 1.5 3 -0.8
v -1.5 3 -1.5
v -0.7 3 -1.5
v -0.5 3 -1.5
v 1.5 3 -1.5

# faces
f 5/2/1 2/2/1 1/2/1
f 6/2/1 2/2/1 5/2/1
f 7/2/1 4/2/1 3/2/1
f 8/2/1 4/2/1 7/2/1
f 13/2/1 10/2/1 9/2/1
f 14/2/1 10/2/1 13/2/1
f 15/2/1 12/2/1 11/2/1
f 16/2/1 12/2/1 15/2/1
f 21/2/1 18/2/1 17/2/1
f 22/2/1 18/2/1 21/2/1
f 23/2/1 20/2/1 19/2/1
f 24/2/1 20/2/1 23/2/1
f 28/1/1 26/1/1 25/1/1
f 29/1/1 26/1/1 28/1/1
f 31/1/1 28/1/1 27/1/1
f 31/1/1 30/1/1 29/1/1
f 31/1/1 29/1/1 28/1/1
f 32/1/1 30/1/1 31/1/1
f 33/1/1 30/1/1 32/1/1
f 34/1/1 30/1/1 33/1/1
f 36/1/1 33/1/1 32/1/1
f 37/1/1 33/1/1 36/1/1
f 39/1/1 36/1/1 35/1/1
f 39/1/1 38/1/1 37/1/1
f 39/1/1 37/1/1 36/1/1
f 40/1/1 38/1/1 39/1/1
f 41/1/1 38/1/1 40/1/1
f 42/1/1 38/1/1 41/1/1
f 43/1/1 41/1/1 40/1/1
f 44/1/1 41/1/1 43/1/1
f 49/2/1 46/2/1 45/2/1
f 50/2/1 46/2/1 49/2/1
f 51/2/1 48/2/1 47/2/1
f 52/2/1 48/2/1 51/2/1
f 53/2/1 48/2/1 52/2/1
f 54/2/1 48/2/1 53/2/1
f 57/2/1 56/2/1 55/2/1
f 58/2/1 56/2/1 57/2/1
f 64/2/1 60/2/1 59/2/1
f 65/2/1 62/2/1 61/2/1
f 66/2/1 62/2/1 65/2/1
f 67/2/1 64/2/1 63/2/1
f 68/2/1 60/2/1 64/2/1
f 68/2/1 64/2/1 67/2/1
f 71/2/1 70/2/1 69/2/1
f 72/2/1 70/2/1 71/2/1
f 73/2/1 71/2/1 69/2/1
f 74/2/1 71/2/1 73/2/1
f 77/2/1 76/2/1 75/2/1
f 78/2/1 76/2/1 77/2/1
f 81/2/1 80/2/1 79/2/1
f 83/2/1 81/2/1 79/2/1
f 83/2/1 82/2/1 81/2/1
f 84/2/1 82/2/1 83/2/1
f 85/2/2 86/2/2 87/2/2
f 87/2/2 86/2/2 88/2/2
f 88/2/2 86/2/2 89/2/2
f 89/2/2 86/2/2 90/2/2
f 91/2/2 92/2/2 93/2/2
f 93/2/2 92/2/2 94/2/2
f 95/2/2 96/2/2 98/2/2
f 97/2/2 98/2/2 99/2/2
f 98/2/2 96/2/2 100/2/2
f 99/2/2 98/2/2 100/2/2
f 101/2/2 102/2/2 105/2/2
f 105/2/2 102/2/2 106/2/2
f 103/2/2 104/2/2 107/2/2
f 107/2/2 104/2/2 108/2/2
f 101/2/2 105/2/2 109/2/2
f 109/2/2 105/2/2 110/2/2
f 111/2/2 112/2/2 113/2/2
f 113/2/2 112/2/2 114/2/2
f 115/2/2 116/2/2 117/2/2
f 115/2/2 117/2/2 121/2/2
f 117/2/2 118/2/2 121/2/2
f 121/2/2 118/2/2 122/2/2
f 119/2/2 120/2/2 123/2/2
f 123/2/2 120/2/2 124/2/2
f 125/1/2 126/1/2 128/1/2
f 128/1/2 126/1/2 129/1/2
f 127/1/2 128/1/2 131/1/2
f 129/1/2 130/1/2 131/1/2
f 128/1/2 129/1/2 131/1/2
f 131/1/2 130/1/2 132/1/2
f 132/1/2 130/1/2 133/1/2
f 133/1/2 130/1/2 134/1/2
f 132/1/2 133/1/2 136/1/2
f 136/1/2 133/1/2 137/1/2
f 135/1/2 136/1/2 139/1/2
f 137/1/2 138/1/2 139/1/2
f 136/1/2 137/1/2 139/1/2
f 139/1/2 138/1/2 140/1/2
f 140/1/2 138/1/2 141/1/2
f 141/1/2 138/1/2 142/1/2
f 140/1/2 141/1/2 143/1/2
f 143/1/2 141/1/2 144/1/2
f 145/2/2 146/2/2 149/2/2
f 149/2/2 146/2/2 150/2/2
f 147/2/2 148/2/2 151/2/2
f 151/2/2 148/2/2 152/2/2
f 153/2/2 154/2/2 157/2/2
f 157/2/2 154/2/2 158/2/2
f 155/2/2 156/2/2 159/2/2
f 159/2/2 156/2/2 160/2/2
f 161/2/2 162/2/2 165/2/2
f 165/2/2 162/2/2 166/2/2
f 163/2/2 164/2/2 167/2/2
f 167/2/2 164/2/2 168/2/2
f 175/2/3 172/2/3 171/2/3
f 176/2/3 172/2/3 175/2/3
f 179/2/3 170/2/3 169/2/3
f 180/2/3 170/2/3 179/2/3
f 181/2/3 174/2/3 173/2/3
f 182/2/3 174/2/3 181/2/3
f 187/2/3 184/2/3 183/2/3
f 188/2/3 184/2/3 187/2/3
f 189/2/3 178/2/3 177/2/3
f 190/2/3 178/2/3 189/2/3
f 191/2/3 186/2/3 185/2/3
f 192/2/3 186/2/3 191/2/3
f 197/1/3 194/1/3 193/1/3
f 198/1/3 196/1/3 195/1/3
f 199/1/3 197/1/3 193/1/3
f 199/1/3 198/1/3 197/1/3
f 200/1/3 196/1/3 198/1/3
f 200/1/3 198/1/3 199/1/3
f 202/1/3 199/1/3 193/1/3
f 203/1/3 196/1/3 200/1/3
f 205/1/3 202/1/3 201/1/3
f 206/1/3 199/1/3 202/1/3
f 206/1/3 202/1/3 205/1/3
f 207/1/3 204/1/3 203/1/3
f 207/1/3 203/1/3 200/1/3
f 208/1/3 204/1/3 207/1/3
f 209/1/3 199/1/3 206/1/3
f 210/1/3 199/1/3 209/1/3
f 211/1/3 207/1/3 200/1/3
f 212/1/3 207/1/3 211/1/3
f 217/2/3 214/2/3 213/2/3
f 218/2/3 214/2/3 217/2/3
f 219/2/3 216/2/3 215/2/3
f 220/2/3 216/2/3 219/2/3
f 221/2/3 217/2/3 213/2/3
f 222/2/3 217/2/3 221/2/3
f 223/2/3 216/2/3 220/2/3
f 224/2/3 216/2/3 223/2/3
f 229/2/3 226/2/3 225/2/3
f 230/2/3 226/2/3 229/2/3
f 231/2/3 228/2/3 227/2/3
f 232/2/3 228/2/3 231/2/3
f 235/2/3 234/2/3 233/2/3
f 236/2/3 234/2/3 235/2/3
f 239/2/3 238/2/3 237/2/3
f 240/2/3 238/2/3 239/2/3
f 245/2/3 242/2/3 241/2/3
f 248/2/3 244/2/3 243/2/3
f 249/2/3 246/2/3 245/2/3
f 249/2/3 245/2/3 241/2/3
f 250/2/3 246/2/3 249/2/3
f 251/2/3 248/2/3 247/2/3
f 252/2/3 244/2/3 248/2/3
f 252/2/3 248/2/3 251/2/3
f 253/2/4 254/2/4 257/2/4
f 257/2/4 254/2/4 258/2/4
f 255/2/4 256/2/4 259/2/4
f 259/2/4 256/2/4 260/2/4
f 253/2/4 257/2/4 261/2/4
f 261/2/4 257/2/4 262/2/4
f 260/2/4 256/2/4 263/2/4
f 263/2/4 256/2/4 264/2/4
f 265/2/4 266/2/4 267/2/4
f 267/2/4 266/2/4 268/2/4
f 269/2/4 270/2/4 271/2/4
f 271/2/4 270/2/4 272/2/4
f 273/2/4 274/2/4 277/2/4
f 277/2/4 274/2/4 278/2/4
f 275/2/4 276/2/4 279/2/4
f 279/2/4 276/2/4 280/2/4
f 281/2/4 282/2/4 285/2/4
f 283/2/4 284/2/4 288/2/4
f 285/2/4 286/2/4 289/2/4
f 281/2/4 285/2/4 289/2/4
f 289/2/4 286/2/4 290/2/4
f 287/2/4 288/2/4 291/2/4
f 288/2/4 284/2/4 292/2/4
f 291/2/4 288/2/4 292/2/4
f 293/1/4 294/1/4 298/1/4
f 295/1/4 296/1/4 299/1/4
f 297/1/4 298/1/4 301/1/4
f 298/1/4 294/1/4 302/1/4
f 301/1/4 298/1/4 302/1/4
f 299/1/4 300/1/4 303/1/4
f 295/1/4 299/1/4 303/1/4
f 303/1/4 300/1/4 304/1/4
f 302/1/4 294/1/4 305/1/4
f 295/1/4 303/1/4 306/1/4
f 302/1/4 305/1/4 307/1/4
f 305/1/4 306/1/4 307/1/4
f 306/1/4 303/1/4 308/1/4
f 307/1/4 306/1/4 308/1/4
f 302/1/4 307/1/4 309/1/4
f 309/1/4 307/1/4 310/1/4
f 308/1/4 303/1/4 311/1/4
f 311/1/4 303/1/4 312/1/4
f 313/2/4 314/2/4 319/2/4
f 319/2/4 314/2/4 320/2/4
f 317/2/4 318/2/4 321/2/4
f 321/2/4 318/2/4 322/2/4
f 315/2/4 316/2/4 327/2/4
f 327/2/4 316/2/4 328/2/4
f 323/2/4 324/2/4 331/2/4
f 331/2/4 324/2/4 332/2/4
f 329/2/4 330/2/4 333/2/4
f 333/2/4 330/2/4 334/2/4
f 325/2/4 326/2/4 335/2/4
f 335/2/4 326/2/4 336/2/4
f 341/2/5 338/2/5 337/2/5
f 342/2/5 338/2/5 341/2/5
f 347/2/5 346/2/5 345/2/5
f 348/2/5 346/2/5 347/2/5
f 349/2/5 340/2/5 339/2/5
f 350/2/5 340/2/5 349/2/5
f 353/2/5 344/2/5 343/2/5
f 354/2/5 344/2/5 353/2/5
f 355/2/5 352/2/5 351/2/5
f 356/2/5 352/2/5 355/2/5
f 360/1/5 358/1/5 357/1/5
f 361/1/5 360/1/5 359/1/5
f 362/1/5 360/1/5 361/1/5
f 363/1/5 360/1/5 362/1/5
f 364/1/5 358/1/5 360/1/5
f 364/1/5 360/1/5 363/1/5
f 365/1/5 363/1/5 362/1/5
f 366/1/5 358/1/5 364/1/5
f 367/1/5 358/1/5 366/1/5
f 369/1/5 365/1/5 362/1/5
f 369/1/5 368/1/5 367/1/5
f 369/1/5 367/1/5 366/1/5
f 369/1/5 366/1/5 365/1/5
f 370/1/5 368/1/5 369/1/5
f 371/1/5 369/1/5 362/1/5
f 372/1/5 369/1/5 371/1/5
f 377/2/5 374/2/5 373/2/5
f 378/2/5 374/2/5 377/2/5
f 379/2/5 376/2/5 375/2/5
f 380/2/5 376/2/5 379/2/5
f 381/2/5 376/2/5 380/2/5
f 382/2/5 376/2/5 381/2/5
f 385/2/5 377/2/5 373/2/5
f 386/2/5 377/2/5 385/2/5
f 389/2/5 388/2/5 387/2/5
f 392/2/5 384/2/5 383/2/5
f 393/2/5 390/2/5 389/2/5
f 393/2/5 389/2/5 387/2/5
f 394/2/5 390/2/5 393/2/5
f 395/2/5 392/2/5 391/2/5
f 396/2/5 384/2/5 392/2/5
f 396/2/5 392/2/5 395/2/5
f 401/2/5 398/2/5 397/2/5
f 402/2/5 398/2/5 401/2/5
f 403/2/5 400/2/5 399/2/5
f 404/2/5 400/2/5 403/2/5
f 405/2/5 401/2/5 397/2/5
f 406/2/5 401/2/5 405/2/5
f 409/2/5 400/2/5 404/2/5
f 410/2/5 400/2/5 409/2/5
f 413/2/5 408/2/5 407/2/5
f 416/2/5 412/2/5 411/2/5
f 417/2/5 414/2/5 413/2/5
f 417/2/5 413/2/5 407/2/5
f 418/2/5 414/2/5 417/2/5
f 419/2/5 416/2/5 415/2/5
f 420/2/5 412/2/5 416/2/5
f 420/2/5 416/2/5 419/2/5
f 421/2/6 422/2/6 425/2/6
f 425/2/6 422/2/6 426/2/6
f 423/2/6 424/2/6 427/2/6
f 427/2/6 424/2/6 428/2/6
f 421/2/6 425/2/6 429/2/6
f 429/2/6 425/2/6 430/2/6
f 428/2/6 424/2/6 433/2/6
f 433/2/6 424/2/6 434/2/6
f 431/2/6 432/2/6 437/2/6
f 435/2/6 436/2/6 440/2/6
f 437/2/6 438/2/6 441/2/6
f 431/2/6 437/2/6 441/2/6
f 441/2/6 438/2/6 442/2/6
f 439/2/6 440/2/6 443/2/6
f 440/2/6 436/2/6 444/2/6
f 443/2/6 440/2/6 444/2/6
f 445/2/6 446/2/6 449/2/6
f 449/2/6 446/2/6 450/2/6
f 447/2/6 448/2/6 451/2/6
f 451/2/6 448/2/6 452/2/6
f 452/2/6 448/2/6 453/2/6
f 453/2/6 448/2/6 454/2/6
f 445/2/6 449/2/6 457/2/6
f 457/2/6 449/2/6 458/2/6
f 459/2/6 460/2/6 461/2/6
f 455/2/6 456/2/6 464/2/6
f 461/2/6 462/2/6 465/2/6
f 459/2/6 461/2/6 465/2/6
f 465/2/6 462/2/6 466/2/6
f 463/2/6 464/2/6 467/2/6
f 464/2/6 456/2/6 468/2/6
f 467/2/6 464/2/6 468/2/6
f 469/1/6 470/1/6 472/1/6
f 471/1/6 472/1/6 473/1/6
f 473/1/6 472/1/6 474/1/6
f 474/1/6 472/1/6 475/1/6
f 472/1/6 470/1/6 476/1/6
f 475/1/6 472/1/6 476/1/6
f 474/1/6 475/1/6 477/1/6
f 476/1/6 470/1/6 478/1/6
f 478/1/6 470/1/6 479/1/6
f 474/1/6 477/1/6 481/1/6
f 479/1/6 480/1/6 481/1/6
f 478/1/6 479/1/6 481/1/6
f 477/1/6 478/1/6 481/1/6
f 481/1/6 480/1/6 482/1/6
f 474/1/6 481/1/6 483/1/6
f 483/1/6 481/1/6 484/1/6
f 485/2/6 486/2/6 489/2/6
f 489/2/6 486/2/6 490/2/6
f 493/2/6 494/2/6 495/2/6
f 495/2/6 494/2/6 496/2/6
f 487/2/6 488/2/6 497/2/6
f 497/2/6 488/2/6 498/2/6
f 491/2/6 492/2/6 501/2/6
f 501/2/6 492/2/6 502/2/6
f 499/2/6 500/2/6 503/2/6
f 503/2/6 500/2/6 504/2/6
